solid OpenSCAD_Model
  facet normal 0.654982 0 -0.755645
    outer loop
      vertex 166.454 0 8.81629
      vertex 167.944 6.49 10.1078
      vertex 167.944 0 10.1078
    endloop
  endfacet
  facet normal 0.654982 0 -0.755645
    outer loop
      vertex 167.944 6.49 10.1078
      vertex 166.454 0 8.81629
      vertex 166.454 6.49 8.81629
    endloop
  endfacet
  facet normal 0.959438 0 -0.281919
    outer loop
      vertex 168.5 0 12
      vertex 167.944 6.49 10.1078
      vertex 168.5 6.49 12
    endloop
  endfacet
  facet normal 0.959438 0 -0.281919
    outer loop
      vertex 167.944 6.49 10.1078
      vertex 168.5 0 12
      vertex 167.944 0 10.1078
    endloop
  endfacet
  facet normal 0.142317 0 -0.989821
    outer loop
      vertex 164.502 0 8.53563
      vertex 166.454 6.49 8.81629
      vertex 166.454 0 8.81629
    endloop
  endfacet
  facet normal 0.142317 0 -0.989821
    outer loop
      vertex 166.454 6.49 8.81629
      vertex 164.502 0 8.53563
      vertex 164.502 6.49 8.53563
    endloop
  endfacet
  facet normal -0.415397 0 -0.90964
    outer loop
      vertex 162.708 0 9.35488
      vertex 164.502 6.49 8.53563
      vertex 164.502 0 8.53563
    endloop
  endfacet
  facet normal -0.415397 0 -0.90964
    outer loop
      vertex 164.502 6.49 8.53563
      vertex 162.708 0 9.35488
      vertex 162.708 6.49 9.35488
    endloop
  endfacet
  facet normal -1 0 0
    outer loop
      vertex 161.642 0 11.0139
      vertex 161.642 6.49 12.9861
      vertex 161.642 6.49 11.0139
    endloop
  endfacet
  facet normal -1 -0 0
    outer loop
      vertex 161.642 6.49 12.9861
      vertex 161.642 0 11.0139
      vertex 161.642 0 12.9861
    endloop
  endfacet
  facet normal 0.142337 0 0.989818
    outer loop
      vertex 164.502 6.49 15.4644
      vertex 166.454 0 15.1837
      vertex 166.454 6.49 15.1837
    endloop
  endfacet
  facet normal 0.142337 0 0.989818
    outer loop
      vertex 166.454 0 15.1837
      vertex 164.502 6.49 15.4644
      vertex 164.502 0 15.4644
    endloop
  endfacet
  facet normal 0.654979 0 0.755647
    outer loop
      vertex 166.454 6.49 15.1837
      vertex 167.944 0 13.8922
      vertex 167.944 6.49 13.8922
    endloop
  endfacet
  facet normal 0.654979 0 0.755647
    outer loop
      vertex 167.944 0 13.8922
      vertex 166.454 6.49 15.1837
      vertex 166.454 0 15.1837
    endloop
  endfacet
  facet normal -0.841294 6.32634e-05 0.540578
    outer loop
      vertex 161.642 6.49 12.9861
      vertex 162.293 0.00999928 14
      vertex 162.708 6.49 14.6451
    endloop
  endfacet
  facet normal -0.841478 0 0.540292
    outer loop
      vertex 161.642 0 12.9861
      vertex 162.293 0.00999928 14
      vertex 161.642 6.49 12.9861
    endloop
  endfacet
  facet normal -0.841478 0 0.540292
    outer loop
      vertex 162.293 0.00999928 14
      vertex 161.642 0 12.9861
      vertex 162.293 0 14
    endloop
  endfacet
  facet normal -0.841005 0 0.541028
    outer loop
      vertex 162.708 6.49 14.6451
      vertex 162.293 0.00999928 14
      vertex 162.708 0.00999928 14.6451
    endloop
  endfacet
  facet normal 0.959438 -0 0.281919
    outer loop
      vertex 167.944 0 13.8922
      vertex 168.5 6.49 12
      vertex 167.944 6.49 13.8922
    endloop
  endfacet
  facet normal 0.959438 0 0.281919
    outer loop
      vertex 168.5 6.49 12
      vertex 167.944 0 13.8922
      vertex 168.5 0 12
    endloop
  endfacet
  facet normal -0.841297 0 -0.540574
    outer loop
      vertex 162.708 0 9.35488
      vertex 161.642 6.49 11.0139
      vertex 162.708 6.49 9.35488
    endloop
  endfacet
  facet normal -0.841297 -0 -0.540574
    outer loop
      vertex 161.642 6.49 11.0139
      vertex 162.708 0 9.35488
      vertex 161.642 0 11.0139
    endloop
  endfacet
  facet normal 0 1 -0
    outer loop
      vertex 164.555 6.49 13.9499
      vertex 164.502 6.49 15.4644
      vertex 166.454 6.49 15.1837
    endloop
  endfacet
  facet normal 0 1 0
    outer loop
      vertex 164.502 6.49 15.4644
      vertex 164.555 6.49 13.9499
      vertex 162.708 6.49 14.6451
    endloop
  endfacet
  facet normal 0 1 0
    outer loop
      vertex 166.247 6.49 13.5637
      vertex 166.454 6.49 15.1837
      vertex 167.944 6.49 13.8922
    endloop
  endfacet
  facet normal 0 1 0
    outer loop
      vertex 166.454 6.49 15.1837
      vertex 166.247 6.49 13.5637
      vertex 164.555 6.49 13.9499
    endloop
  endfacet
  facet normal 0 1 0
    outer loop
      vertex 167 6.49 12
      vertex 167.944 6.49 13.8922
      vertex 168.5 6.49 12
    endloop
  endfacet
  facet normal 0 1 0
    outer loop
      vertex 167.944 6.49 13.8922
      vertex 167 6.49 12
      vertex 166.247 6.49 13.5637
    endloop
  endfacet
  facet normal 0 1 -0
    outer loop
      vertex 167.944 6.49 10.1078
      vertex 167 6.49 12
      vertex 168.5 6.49 12
    endloop
  endfacet
  facet normal 0 1 0
    outer loop
      vertex 167 6.49 12
      vertex 167.944 6.49 10.1078
      vertex 166.247 6.49 10.4363
    endloop
  endfacet
  facet normal 0 1 -0
    outer loop
      vertex 166.454 6.49 8.81629
      vertex 166.247 6.49 10.4363
      vertex 167.944 6.49 10.1078
    endloop
  endfacet
  facet normal 0 1 0
    outer loop
      vertex 166.247 6.49 10.4363
      vertex 166.454 6.49 8.81629
      vertex 164.555 6.49 10.0501
    endloop
  endfacet
  facet normal 0 1 0
    outer loop
      vertex 164.502 6.49 8.53563
      vertex 164.555 6.49 10.0501
      vertex 166.454 6.49 8.81629
    endloop
  endfacet
  facet normal 0 1 0
    outer loop
      vertex 164.555 6.49 10.0501
      vertex 164.502 6.49 8.53563
      vertex 162.708 6.49 9.35488
    endloop
  endfacet
  facet normal 0 1 -0
    outer loop
      vertex 163.198 6.49 12.8678
      vertex 162.708 6.49 14.6451
      vertex 164.555 6.49 13.9499
    endloop
  endfacet
  facet normal 0 1 0
    outer loop
      vertex 162.708 6.49 14.6451
      vertex 163.198 6.49 12.8678
      vertex 161.642 6.49 12.9861
    endloop
  endfacet
  facet normal 0 1 -0
    outer loop
      vertex 163.198 6.49 11.1322
      vertex 161.642 6.49 12.9861
      vertex 163.198 6.49 12.8678
    endloop
  endfacet
  facet normal 0 1 0
    outer loop
      vertex 163.198 6.49 11.1322
      vertex 161.642 6.49 11.0139
      vertex 161.642 6.49 12.9861
    endloop
  endfacet
  facet normal 0 1 0
    outer loop
      vertex 162.708 6.49 9.35488
      vertex 163.198 6.49 11.1322
      vertex 164.555 6.49 10.0501
    endloop
  endfacet
  facet normal 0 1 0
    outer loop
      vertex 163.198 6.49 11.1322
      vertex 162.708 6.49 9.35488
      vertex 161.642 6.49 11.0139
    endloop
  endfacet
  facet normal -0.415395 0 0.909641
    outer loop
      vertex 164.502 6.49 15.4644
      vertex 163 0.00999928 14.7785
      vertex 164.502 0 15.4644
    endloop
  endfacet
  facet normal -0.415418 6.57275e-06 0.909631
    outer loop
      vertex 162.708 6.49 14.6451
      vertex 163 0.00999928 14.7785
      vertex 164.502 6.49 15.4644
    endloop
  endfacet
  facet normal -0.415539 0 0.909575
    outer loop
      vertex 163 0.00999928 14.7785
      vertex 162.708 6.49 14.6451
      vertex 162.708 0.00999928 14.6451
    endloop
  endfacet
  facet normal -0.415395 0 0.909641
    outer loop
      vertex 164.502 0 15.4644
      vertex 163 0.00999928 14.7785
      vertex 163 0 14.7785
    endloop
  endfacet
  facet normal -0.222528 0 0.974926
    outer loop
      vertex 164.555 6.49 10.0501
      vertex 166.247 1.49 10.4363
      vertex 166.247 6.49 10.4363
    endloop
  endfacet
  facet normal -0.222528 0 0.974926
    outer loop
      vertex 166.247 1.49 10.4363
      vertex 164.555 6.49 10.0501
      vertex 164.555 1.49 10.0501
    endloop
  endfacet
  facet normal -0.900977 0 0.433866
    outer loop
      vertex 166.247 1.49 10.4363
      vertex 167 6.49 12
      vertex 166.247 6.49 10.4363
    endloop
  endfacet
  facet normal -0.900977 0 0.433866
    outer loop
      vertex 167 6.49 12
      vertex 166.247 1.49 10.4363
      vertex 167 1.49 12
    endloop
  endfacet
  facet normal -0.900977 0 -0.433866
    outer loop
      vertex 167 1.49 12
      vertex 166.247 6.49 13.5637
      vertex 167 6.49 12
    endloop
  endfacet
  facet normal -0.900977 -0 -0.433866
    outer loop
      vertex 166.247 6.49 13.5637
      vertex 167 1.49 12
      vertex 166.247 1.49 13.5637
    endloop
  endfacet
  facet normal 0.623465 0 -0.781852
    outer loop
      vertex 163.198 1.49 12.8678
      vertex 164.555 6.49 13.9499
      vertex 164.555 1.49 13.9499
    endloop
  endfacet
  facet normal 0.623465 0 -0.781852
    outer loop
      vertex 164.555 6.49 13.9499
      vertex 163.198 1.49 12.8678
      vertex 163.198 6.49 12.8678
    endloop
  endfacet
  facet normal -0.222528 0 -0.974926
    outer loop
      vertex 164.555 1.49 13.9499
      vertex 166.247 6.49 13.5637
      vertex 166.247 1.49 13.5637
    endloop
  endfacet
  facet normal -0.222528 0 -0.974926
    outer loop
      vertex 166.247 6.49 13.5637
      vertex 164.555 1.49 13.9499
      vertex 164.555 6.49 13.9499
    endloop
  endfacet
  facet normal 0 1 0
    outer loop
      vertex 166.247 1.49 13.5637
      vertex 163.198 1.49 12.8678
      vertex 164.555 1.49 13.9499
    endloop
  endfacet
  facet normal 0 1 0
    outer loop
      vertex 167 1.49 12
      vertex 163.198 1.49 12.8678
      vertex 166.247 1.49 13.5637
    endloop
  endfacet
  facet normal 0 1 0
    outer loop
      vertex 167 1.49 12
      vertex 163.198 1.49 11.1322
      vertex 163.198 1.49 12.8678
    endloop
  endfacet
  facet normal 0 1 -0
    outer loop
      vertex 166.247 1.49 10.4363
      vertex 163.198 1.49 11.1322
      vertex 167 1.49 12
    endloop
  endfacet
  facet normal 0 1 0
    outer loop
      vertex 163.198 1.49 11.1322
      vertex 166.247 1.49 10.4363
      vertex 164.555 1.49 10.0501
    endloop
  endfacet
  facet normal 1 -0 0
    outer loop
      vertex 163.198 1.49 12.8678
      vertex 163.198 6.49 11.1322
      vertex 163.198 6.49 12.8678
    endloop
  endfacet
  facet normal 1 0 0
    outer loop
      vertex 163.198 6.49 11.1322
      vertex 163.198 1.49 12.8678
      vertex 163.198 1.49 11.1322
    endloop
  endfacet
  facet normal 0.623465 0 0.781852
    outer loop
      vertex 163.198 6.49 11.1322
      vertex 164.555 1.49 10.0501
      vertex 164.555 6.49 10.0501
    endloop
  endfacet
  facet normal 0.623465 0 0.781852
    outer loop
      vertex 164.555 1.49 10.0501
      vertex 163.198 6.49 11.1322
      vertex 163.198 1.49 11.1322
    endloop
  endfacet
  facet normal 0.654979 0 -0.755647
    outer loop
      vertex 166.454 0 28.8163
      vertex 167.944 6.49 30.1078
      vertex 167.944 0 30.1078
    endloop
  endfacet
  facet normal 0.654979 0 -0.755647
    outer loop
      vertex 167.944 6.49 30.1078
      vertex 166.454 0 28.8163
      vertex 166.454 6.49 28.8163
    endloop
  endfacet
  facet normal 0.959438 0 -0.281919
    outer loop
      vertex 168.5 0 32
      vertex 167.944 6.49 30.1078
      vertex 168.5 6.49 32
    endloop
  endfacet
  facet normal 0.959438 0 -0.281919
    outer loop
      vertex 167.944 6.49 30.1078
      vertex 168.5 0 32
      vertex 167.944 0 30.1078
    endloop
  endfacet
  facet normal 0.142337 0 -0.989818
    outer loop
      vertex 164.502 0 28.5356
      vertex 166.454 6.49 28.8163
      vertex 166.454 0 28.8163
    endloop
  endfacet
  facet normal 0.142337 0 -0.989818
    outer loop
      vertex 166.454 6.49 28.8163
      vertex 164.502 0 28.5356
      vertex 164.502 6.49 28.5356
    endloop
  endfacet
  facet normal -0.415395 -0 -0.909641
    outer loop
      vertex 163 0.00999928 29.2215
      vertex 164.502 0 28.5356
      vertex 163 0 29.2215
    endloop
  endfacet
  facet normal -0.415395 0 -0.909641
    outer loop
      vertex 164.502 0 28.5356
      vertex 163 0.00999928 29.2215
      vertex 164.502 6.49 28.5356
    endloop
  endfacet
  facet normal -0.415539 -0 -0.909575
    outer loop
      vertex 162.708 6.49 29.3549
      vertex 163 0.00999928 29.2215
      vertex 162.708 0.00999928 29.3549
    endloop
  endfacet
  facet normal -0.415418 6.57275e-06 -0.909631
    outer loop
      vertex 163 0.00999928 29.2215
      vertex 162.708 6.49 29.3549
      vertex 164.502 6.49 28.5356
    endloop
  endfacet
  facet normal -1 0 0
    outer loop
      vertex 161.642 0 31.0139
      vertex 161.642 6.49 32.9861
      vertex 161.642 6.49 31.0139
    endloop
  endfacet
  facet normal -1 -0 0
    outer loop
      vertex 161.642 6.49 32.9861
      vertex 161.642 0 31.0139
      vertex 161.642 0 32.9861
    endloop
  endfacet
  facet normal 0.142337 0 0.989818
    outer loop
      vertex 164.502 6.49 35.4644
      vertex 166.454 0 35.1837
      vertex 166.454 6.49 35.1837
    endloop
  endfacet
  facet normal 0.142337 0 0.989818
    outer loop
      vertex 166.454 0 35.1837
      vertex 164.502 6.49 35.4644
      vertex 164.502 0 35.4644
    endloop
  endfacet
  facet normal 0.654979 0 0.755647
    outer loop
      vertex 166.454 6.49 35.1837
      vertex 167.944 0 33.8922
      vertex 167.944 6.49 33.8922
    endloop
  endfacet
  facet normal 0.654979 0 0.755647
    outer loop
      vertex 167.944 0 33.8922
      vertex 166.454 6.49 35.1837
      vertex 166.454 0 35.1837
    endloop
  endfacet
  facet normal -0.841294 0 0.540578
    outer loop
      vertex 161.642 0 32.9861
      vertex 162.708 6.49 34.6451
      vertex 161.642 6.49 32.9861
    endloop
  endfacet
  facet normal -0.841294 0 0.540578
    outer loop
      vertex 162.708 6.49 34.6451
      vertex 161.642 0 32.9861
      vertex 162.708 0 34.6451
    endloop
  endfacet
  facet normal 0.959438 -0 0.281919
    outer loop
      vertex 167.944 0 33.8922
      vertex 168.5 6.49 32
      vertex 167.944 6.49 33.8922
    endloop
  endfacet
  facet normal 0.959438 0 0.281919
    outer loop
      vertex 168.5 6.49 32
      vertex 167.944 0 33.8922
      vertex 168.5 0 32
    endloop
  endfacet
  facet normal -0.841349 0 -0.540493
    outer loop
      vertex 162.512 0.00999928 29.66
      vertex 162.708 6.49 29.3549
      vertex 162.708 0.00999928 29.3549
    endloop
  endfacet
  facet normal -0.841294 -5.6815e-06 -0.540578
    outer loop
      vertex 162.708 6.49 29.3549
      vertex 162.512 0.00999928 29.66
      vertex 161.642 6.49 31.0139
    endloop
  endfacet
  facet normal -0.841281 0 -0.540597
    outer loop
      vertex 161.642 0 31.0139
      vertex 162.512 0.00999928 29.66
      vertex 162.512 0 29.66
    endloop
  endfacet
  facet normal -0.841281 0 -0.540597
    outer loop
      vertex 162.512 0.00999928 29.66
      vertex 161.642 0 31.0139
      vertex 161.642 6.49 31.0139
    endloop
  endfacet
  facet normal 0 1 -0
    outer loop
      vertex 164.555 6.49 33.9499
      vertex 164.502 6.49 35.4644
      vertex 166.454 6.49 35.1837
    endloop
  endfacet
  facet normal 0 1 0
    outer loop
      vertex 164.502 6.49 35.4644
      vertex 164.555 6.49 33.9499
      vertex 162.708 6.49 34.6451
    endloop
  endfacet
  facet normal 0 1 0
    outer loop
      vertex 166.247 6.49 33.5637
      vertex 166.454 6.49 35.1837
      vertex 167.944 6.49 33.8922
    endloop
  endfacet
  facet normal 0 1 0
    outer loop
      vertex 166.454 6.49 35.1837
      vertex 166.247 6.49 33.5637
      vertex 164.555 6.49 33.9499
    endloop
  endfacet
  facet normal 0 1 0
    outer loop
      vertex 167 6.49 32
      vertex 167.944 6.49 33.8922
      vertex 168.5 6.49 32
    endloop
  endfacet
  facet normal 0 1 0
    outer loop
      vertex 167.944 6.49 33.8922
      vertex 167 6.49 32
      vertex 166.247 6.49 33.5637
    endloop
  endfacet
  facet normal 0 1 -0
    outer loop
      vertex 167.944 6.49 30.1078
      vertex 167 6.49 32
      vertex 168.5 6.49 32
    endloop
  endfacet
  facet normal 0 1 0
    outer loop
      vertex 167 6.49 32
      vertex 167.944 6.49 30.1078
      vertex 166.247 6.49 30.4363
    endloop
  endfacet
  facet normal 0 1 -0
    outer loop
      vertex 166.454 6.49 28.8163
      vertex 166.247 6.49 30.4363
      vertex 167.944 6.49 30.1078
    endloop
  endfacet
  facet normal 0 1 0
    outer loop
      vertex 166.247 6.49 30.4363
      vertex 166.454 6.49 28.8163
      vertex 164.555 6.49 30.0501
    endloop
  endfacet
  facet normal 0 1 0
    outer loop
      vertex 164.502 6.49 28.5356
      vertex 164.555 6.49 30.0501
      vertex 166.454 6.49 28.8163
    endloop
  endfacet
  facet normal 0 1 0
    outer loop
      vertex 164.555 6.49 30.0501
      vertex 164.502 6.49 28.5356
      vertex 162.708 6.49 29.3549
    endloop
  endfacet
  facet normal 0 1 -0
    outer loop
      vertex 163.198 6.49 32.8678
      vertex 162.708 6.49 34.6451
      vertex 164.555 6.49 33.9499
    endloop
  endfacet
  facet normal 0 1 0
    outer loop
      vertex 162.708 6.49 34.6451
      vertex 163.198 6.49 32.8678
      vertex 161.642 6.49 32.9861
    endloop
  endfacet
  facet normal 0 1 -0
    outer loop
      vertex 163.198 6.49 31.1322
      vertex 161.642 6.49 32.9861
      vertex 163.198 6.49 32.8678
    endloop
  endfacet
  facet normal 0 1 0
    outer loop
      vertex 163.198 6.49 31.1322
      vertex 161.642 6.49 31.0139
      vertex 161.642 6.49 32.9861
    endloop
  endfacet
  facet normal 0 1 0
    outer loop
      vertex 162.708 6.49 29.3549
      vertex 163.198 6.49 31.1322
      vertex 164.555 6.49 30.0501
    endloop
  endfacet
  facet normal 0 1 0
    outer loop
      vertex 163.198 6.49 31.1322
      vertex 162.708 6.49 29.3549
      vertex 161.642 6.49 31.0139
    endloop
  endfacet
  facet normal -0.415418 0 0.909631
    outer loop
      vertex 162.708 6.49 34.6451
      vertex 164.502 0 35.4644
      vertex 164.502 6.49 35.4644
    endloop
  endfacet
  facet normal -0.415418 0 0.909631
    outer loop
      vertex 164.502 0 35.4644
      vertex 162.708 6.49 34.6451
      vertex 162.708 0 34.6451
    endloop
  endfacet
  facet normal -0.222528 0 0.974926
    outer loop
      vertex 164.555 6.49 30.0501
      vertex 166.247 1.49 30.4363
      vertex 166.247 6.49 30.4363
    endloop
  endfacet
  facet normal -0.222528 0 0.974926
    outer loop
      vertex 166.247 1.49 30.4363
      vertex 164.555 6.49 30.0501
      vertex 164.555 1.49 30.0501
    endloop
  endfacet
  facet normal -0.900977 0 0.433866
    outer loop
      vertex 166.247 1.49 30.4363
      vertex 167 6.49 32
      vertex 166.247 6.49 30.4363
    endloop
  endfacet
  facet normal -0.900977 0 0.433866
    outer loop
      vertex 167 6.49 32
      vertex 166.247 1.49 30.4363
      vertex 167 1.49 32
    endloop
  endfacet
  facet normal -0.900977 0 -0.433866
    outer loop
      vertex 167 1.49 32
      vertex 166.247 6.49 33.5637
      vertex 167 6.49 32
    endloop
  endfacet
  facet normal -0.900977 -0 -0.433866
    outer loop
      vertex 166.247 6.49 33.5637
      vertex 167 1.49 32
      vertex 166.247 1.49 33.5637
    endloop
  endfacet
  facet normal 0.623465 0 -0.781852
    outer loop
      vertex 163.198 1.49 32.8678
      vertex 164.555 6.49 33.9499
      vertex 164.555 1.49 33.9499
    endloop
  endfacet
  facet normal 0.623465 0 -0.781852
    outer loop
      vertex 164.555 6.49 33.9499
      vertex 163.198 1.49 32.8678
      vertex 163.198 6.49 32.8678
    endloop
  endfacet
  facet normal -0.222528 0 -0.974926
    outer loop
      vertex 164.555 1.49 33.9499
      vertex 166.247 6.49 33.5637
      vertex 166.247 1.49 33.5637
    endloop
  endfacet
  facet normal -0.222528 0 -0.974926
    outer loop
      vertex 166.247 6.49 33.5637
      vertex 164.555 1.49 33.9499
      vertex 164.555 6.49 33.9499
    endloop
  endfacet
  facet normal 0 1 0
    outer loop
      vertex 166.247 1.49 33.5637
      vertex 163.198 1.49 32.8678
      vertex 164.555 1.49 33.9499
    endloop
  endfacet
  facet normal 0 1 0
    outer loop
      vertex 167 1.49 32
      vertex 163.198 1.49 32.8678
      vertex 166.247 1.49 33.5637
    endloop
  endfacet
  facet normal 0 1 0
    outer loop
      vertex 167 1.49 32
      vertex 163.198 1.49 31.1322
      vertex 163.198 1.49 32.8678
    endloop
  endfacet
  facet normal 0 1 -0
    outer loop
      vertex 166.247 1.49 30.4363
      vertex 163.198 1.49 31.1322
      vertex 167 1.49 32
    endloop
  endfacet
  facet normal 0 1 0
    outer loop
      vertex 163.198 1.49 31.1322
      vertex 166.247 1.49 30.4363
      vertex 164.555 1.49 30.0501
    endloop
  endfacet
  facet normal 1 -0 0
    outer loop
      vertex 163.198 1.49 32.8678
      vertex 163.198 6.49 31.1322
      vertex 163.198 6.49 32.8678
    endloop
  endfacet
  facet normal 1 0 0
    outer loop
      vertex 163.198 6.49 31.1322
      vertex 163.198 1.49 32.8678
      vertex 163.198 1.49 31.1322
    endloop
  endfacet
  facet normal 0.623465 0 0.781852
    outer loop
      vertex 163.198 6.49 31.1322
      vertex 164.555 1.49 30.0501
      vertex 164.555 6.49 30.0501
    endloop
  endfacet
  facet normal 0.623465 0 0.781852
    outer loop
      vertex 164.555 1.49 30.0501
      vertex 163.198 6.49 31.1322
      vertex 163.198 1.49 31.1322
    endloop
  endfacet
  facet normal 1 0 0
    outer loop
      vertex 233 0 43.66
      vertex 233 -4 43.66
      vertex 233 0 6
    endloop
  endfacet
  facet normal 1 -0 0
    outer loop
      vertex 233 0 6
      vertex 233 2.99 0
      vertex 233 2.99 6
    endloop
  endfacet
  facet normal 1 0 0
    outer loop
      vertex 233 0 6
      vertex 233 -4 0
      vertex 233 2.99 0
    endloop
  endfacet
  facet normal 1 0 0
    outer loop
      vertex 233 -4 0
      vertex 233 0 6
      vertex 233 -4 43.66
    endloop
  endfacet
  facet normal 0 0 1
    outer loop
      vertex 118.5 -2.5 43.66
      vertex 233 0 43.66
      vertex 118.5 0 43.66
    endloop
  endfacet
  facet normal 0 0 1
    outer loop
      vertex 233 0 43.66
      vertex 118.5 -2.5 43.66
      vertex 233 -4 43.66
    endloop
  endfacet
  facet normal 0 0 1
    outer loop
      vertex 106 -4 43.66
      vertex 118.5 -2.5 43.66
      vertex 106 -2.5 43.66
    endloop
  endfacet
  facet normal 0 0 1
    outer loop
      vertex 118.5 -2.5 43.66
      vertex 106 -4 43.66
      vertex 233 -4 43.66
    endloop
  endfacet
  facet normal -0 0 1
    outer loop
      vertex 106 6 43.66
      vertex 114 0.00999928 43.66
      vertex 114 6 43.66
    endloop
  endfacet
  facet normal 0 0 1
    outer loop
      vertex 114 0.00999928 43.66
      vertex 106 6 43.66
      vertex 106 0.00999928 43.66
    endloop
  endfacet
  facet normal 0 0 -1
    outer loop
      vertex 118.5 0.00999928 0
      vertex 233 -4 0
      vertex 118.5 -2.5 0
    endloop
  endfacet
  facet normal 0 0 -1
    outer loop
      vertex 106 -4 0
      vertex 118.5 -2.5 0
      vertex 233 -4 0
    endloop
  endfacet
  facet normal -0 0 -1
    outer loop
      vertex 118.5 -2.5 0
      vertex 106 -4 0
      vertex 106 -2.5 0
    endloop
  endfacet
  facet normal 0 0 -1
    outer loop
      vertex 233 -4 0
      vertex 118.5 0.00999928 0
      vertex 233 2.99 0
    endloop
  endfacet
  facet normal 0 0 -1
    outer loop
      vertex 118.5 0.00999928 0
      vertex 114 2.99 0
      vertex 233 2.99 0
    endloop
  endfacet
  facet normal 0 0 -1
    outer loop
      vertex 106 0.00999928 0
      vertex 114 2.99 0
      vertex 118.5 0.00999928 0
    endloop
  endfacet
  facet normal 0 0 -1
    outer loop
      vertex 106 6 0
      vertex 114 2.99 0
      vertex 106 0.00999928 0
    endloop
  endfacet
  facet normal 0 0 -1
    outer loop
      vertex 114 2.99 0
      vertex 106 6 0
      vertex 114 6 0
    endloop
  endfacet
  facet normal -1 0 0
    outer loop
      vertex 106 -4 37.66
      vertex 106 -2.5 43.66
      vertex 106 -2.5 37.66
    endloop
  endfacet
  facet normal -1 -0 0
    outer loop
      vertex 106 -2.5 43.66
      vertex 106 -4 37.66
      vertex 106 -4 43.66
    endloop
  endfacet
  facet normal -1 0 0
    outer loop
      vertex 106 -4 0
      vertex 106 -2.5 6
      vertex 106 -2.5 0
    endloop
  endfacet
  facet normal -1 -0 0
    outer loop
      vertex 106 -2.5 6
      vertex 106 -4 0
      vertex 106 -4 6
    endloop
  endfacet
  facet normal -1 0 0
    outer loop
      vertex 106 0.00999928 0
      vertex 106 6 43.66
      vertex 106 6 0
    endloop
  endfacet
  facet normal -1 -0 0
    outer loop
      vertex 106 6 43.66
      vertex 106 0.00999928 0
      vertex 106 0.00999928 43.66
    endloop
  endfacet
  facet normal 0 1 0
    outer loop
      vertex 222.887 0 24.6066
      vertex 222.887 0 35.7184
      vertex 224.74 0 35.3918
    endloop
  endfacet
  facet normal 0 1 0
    outer loop
      vertex 222.887 0 35.7184
      vertex 166.454 0 35.1837
      vertex 164.502 0 35.4644
    endloop
  endfacet
  facet normal 0 1 0
    outer loop
      vertex 222.887 0 40.4816
      vertex 233 0 43.66
      vertex 224.74 0 40.8082
    endloop
  endfacet
  facet normal 0 1 0
    outer loop
      vertex 233 0 43.66
      vertex 226.369 0 39.8677
      vertex 224.74 0 40.8082
    endloop
  endfacet
  facet normal 0 1 0
    outer loop
      vertex 233 0 43.66
      vertex 227.012 0 38.1
      vertex 226.369 0 39.8677
    endloop
  endfacet
  facet normal 0 1 0
    outer loop
      vertex 233 0 43.66
      vertex 226.369 0 36.3323
      vertex 227.012 0 38.1
    endloop
  endfacet
  facet normal 0 1 0
    outer loop
      vertex 222.887 0 35.7184
      vertex 167.944 0 33.8922
      vertex 166.454 0 35.1837
    endloop
  endfacet
  facet normal 0 1 0
    outer loop
      vertex 222.887 0 35.7184
      vertex 168.5 0 32
      vertex 167.944 0 33.8922
    endloop
  endfacet
  facet normal 0 1 0
    outer loop
      vertex 222.887 0 35.7184
      vertex 221.678 0 23.1656
      vertex 168.5 0 32
    endloop
  endfacet
  facet normal 0 1 0
    outer loop
      vertex 168.5 0 32
      vertex 221.678 0 23.1656
      vertex 167.944 0 30.1078
    endloop
  endfacet
  facet normal 0 1 -0
    outer loop
      vertex 221.678 0 21.2844
      vertex 167.944 0 30.1078
      vertex 221.678 0 23.1656
    endloop
  endfacet
  facet normal 0 1 0
    outer loop
      vertex 222.887 0 24.6066
      vertex 224.74 0 35.3918
      vertex 224.74 0 24.9332
    endloop
  endfacet
  facet normal 0 1 0
    outer loop
      vertex 226.369 0 36.3323
      vertex 224.74 0 24.9332
      vertex 224.74 0 35.3918
    endloop
  endfacet
  facet normal 0 1 0
    outer loop
      vertex 226.369 0 23.9927
      vertex 226.369 0 36.3323
      vertex 233 0 43.66
    endloop
  endfacet
  facet normal 0 1 0
    outer loop
      vertex 226.369 0 36.3323
      vertex 226.369 0 23.9927
      vertex 224.74 0 24.9332
    endloop
  endfacet
  facet normal 0 1 0
    outer loop
      vertex 233 0 43.66
      vertex 227.012 0 22.225
      vertex 226.369 0 23.9927
    endloop
  endfacet
  facet normal 0 1 0
    outer loop
      vertex 164.502 0 28.5356
      vertex 166.454 0 15.1837
      vertex 164.502 0 15.4644
    endloop
  endfacet
  facet normal 0 1 0
    outer loop
      vertex 222.887 0 19.8434
      vertex 167.944 0 13.8922
      vertex 166.454 0 15.1837
    endloop
  endfacet
  facet normal 0 1 0
    outer loop
      vertex 222.887 0 19.8434
      vertex 168.5 0 12
      vertex 167.944 0 13.8922
    endloop
  endfacet
  facet normal 0 1 0
    outer loop
      vertex 222.887 0 19.8434
      vertex 221.678 0 7.29056
      vertex 168.5 0 12
    endloop
  endfacet
  facet normal 0 1 0
    outer loop
      vertex 222.887 0 8.73157
      vertex 224.74 0 19.5168
      vertex 224.74 0 9.05822
    endloop
  endfacet
  facet normal 0 1 0
    outer loop
      vertex 226.369 0 20.4573
      vertex 224.74 0 9.05822
      vertex 224.74 0 19.5168
    endloop
  endfacet
  facet normal 0 1 0
    outer loop
      vertex 233 0 6
      vertex 226.369 0 20.4573
      vertex 227.012 0 22.225
    endloop
  endfacet
  facet normal 0 1 -0
    outer loop
      vertex 233 0 6
      vertex 227.012 0 22.225
      vertex 233 0 43.66
    endloop
  endfacet
  facet normal 0 1 0
    outer loop
      vertex 226.369 0 20.4573
      vertex 226.369 0 8.11767
      vertex 224.74 0 9.05822
    endloop
  endfacet
  facet normal 0 1 0
    outer loop
      vertex 226.369 0 20.4573
      vertex 233 0 6
      vertex 226.369 0 8.11767
    endloop
  endfacet
  facet normal 0 1 0
    outer loop
      vertex 226.369 0 8.11767
      vertex 233 0 6
      vertex 227.012 0 6.35
    endloop
  endfacet
  facet normal 0 1 0
    outer loop
      vertex 227.012 0 6.35
      vertex 233 0 6
      vertex 226.885 0 6
    endloop
  endfacet
  facet normal 0 1 0
    outer loop
      vertex 164.502 0 35.4644
      vertex 233 0 43.66
      vertex 222.887 0 40.4816
    endloop
  endfacet
  facet normal 0 1 0
    outer loop
      vertex 164.502 0 35.4644
      vertex 222.887 0 40.4816
      vertex 221.678 0 39.0406
    endloop
  endfacet
  facet normal 0 1 0
    outer loop
      vertex 164.502 0 35.4644
      vertex 221.678 0 39.0406
      vertex 221.678 0 37.1594
    endloop
  endfacet
  facet normal 0 1 0
    outer loop
      vertex 164.502 0 35.4644
      vertex 221.678 0 37.1594
      vertex 222.887 0 35.7184
    endloop
  endfacet
  facet normal 0 1 0
    outer loop
      vertex 233 0 43.66
      vertex 164.502 0 35.4644
      vertex 118.5 0 43.66
    endloop
  endfacet
  facet normal 0 1 -0
    outer loop
      vertex 162.708 0 34.6451
      vertex 118.5 0 43.66
      vertex 164.502 0 35.4644
    endloop
  endfacet
  facet normal 0 1 -0
    outer loop
      vertex 161.642 0 32.9861
      vertex 118.5 0 43.66
      vertex 162.708 0 34.6451
    endloop
  endfacet
  facet normal 0 1 0
    outer loop
      vertex 118.5 0 29.66
      vertex 161.642 0 32.9861
      vertex 161.642 0 31.0139
    endloop
  endfacet
  facet normal 0 1 0
    outer loop
      vertex 118.5 0 29.66
      vertex 161.642 0 31.0139
      vertex 162.512 0 29.66
    endloop
  endfacet
  facet normal 0 1 0
    outer loop
      vertex 161.642 0 32.9861
      vertex 118.5 0 29.66
      vertex 118.5 0 43.66
    endloop
  endfacet
  facet normal 0 1 0
    outer loop
      vertex 222.887 0 35.7184
      vertex 222.887 0 24.6066
      vertex 221.678 0 23.1656
    endloop
  endfacet
  facet normal 0 1 0
    outer loop
      vertex 167.944 0 30.1078
      vertex 166.454 0 15.1837
      vertex 166.454 0 28.8163
    endloop
  endfacet
  facet normal 0 1 0
    outer loop
      vertex 167.944 0 30.1078
      vertex 221.678 0 21.2844
      vertex 166.454 0 15.1837
    endloop
  endfacet
  facet normal 0 1 0
    outer loop
      vertex 166.454 0 15.1837
      vertex 221.678 0 21.2844
      vertex 222.887 0 19.8434
    endloop
  endfacet
  facet normal 0 1 0
    outer loop
      vertex 222.887 0 8.73157
      vertex 222.887 0 19.8434
      vertex 224.74 0 19.5168
    endloop
  endfacet
  facet normal 0 1 0
    outer loop
      vertex 166.454 0 28.8163
      vertex 166.454 0 15.1837
      vertex 164.502 0 28.5356
    endloop
  endfacet
  facet normal 0 1 -0
    outer loop
      vertex 164.502 0 15.4644
      vertex 163 0 29.2215
      vertex 164.502 0 28.5356
    endloop
  endfacet
  facet normal 0 1 0
    outer loop
      vertex 163 0 29.2215
      vertex 164.502 0 15.4644
      vertex 163 0 14.7785
    endloop
  endfacet
  facet normal 0 1 0
    outer loop
      vertex 222.887 0 19.8434
      vertex 222.887 0 8.73157
      vertex 221.678 0 7.29056
    endloop
  endfacet
  facet normal 0 1 -0
    outer loop
      vertex 221.678 0 6
      vertex 168.5 0 12
      vertex 221.678 0 7.29056
    endloop
  endfacet
  facet normal 0 1 0
    outer loop
      vertex 168.5 0 12
      vertex 221.678 0 6
      vertex 167.944 0 10.1078
    endloop
  endfacet
  facet normal 0 1 0
    outer loop
      vertex 167.944 0 10.1078
      vertex 221.678 0 6
      vertex 166.454 0 8.81629
    endloop
  endfacet
  facet normal 0 1 -0
    outer loop
      vertex 161.642 0 12.9861
      vertex 118.5 0 14
      vertex 162.293 0 14
    endloop
  endfacet
  facet normal 0 1 -0
    outer loop
      vertex 161.642 0 11.0139
      vertex 118.5 0 14
      vertex 161.642 0 12.9861
    endloop
  endfacet
  facet normal 0 1 0
    outer loop
      vertex 118.5 0 6
      vertex 161.642 0 11.0139
      vertex 162.708 0 9.35488
    endloop
  endfacet
  facet normal 0 1 0
    outer loop
      vertex 118.5 0 6
      vertex 162.708 0 9.35488
      vertex 164.502 0 8.53563
    endloop
  endfacet
  facet normal 0 1 0
    outer loop
      vertex 166.454 0 8.81629
      vertex 221.678 0 6
      vertex 164.502 0 8.53563
    endloop
  endfacet
  facet normal 0 1 0
    outer loop
      vertex 161.642 0 11.0139
      vertex 118.5 0 6
      vertex 118.5 0 14
    endloop
  endfacet
  facet normal 0 1 0
    outer loop
      vertex 118.5 0 6
      vertex 164.502 0 8.53563
      vertex 221.678 0 6
    endloop
  endfacet
  facet normal 0 -1 0
    outer loop
      vertex 106 -4 0
      vertex 171 -4 6
      vertex 106 -4 6
    endloop
  endfacet
  facet normal 0 -1 0
    outer loop
      vertex 233 -4 0
      vertex 171 -4 6
      vertex 106 -4 0
    endloop
  endfacet
  facet normal 0 -1 0
    outer loop
      vertex 171 -4 6
      vertex 222.887 -4 3.96843
      vertex 221.678 -4 5.40944
    endloop
  endfacet
  facet normal 0 -1 0
    outer loop
      vertex 171 -4 6
      vertex 233 -4 0
      vertex 222.887 -4 3.96843
    endloop
  endfacet
  facet normal 0 -1 0
    outer loop
      vertex 171 -4 37.66
      vertex 233 -4 43.66
      vertex 106 -4 43.66
    endloop
  endfacet
  facet normal -0 -1 0
    outer loop
      vertex 222.887 -4 40.4816
      vertex 233 -4 43.66
      vertex 171 -4 37.66
    endloop
  endfacet
  facet normal 0 -1 0
    outer loop
      vertex 233 -4 43.66
      vertex 222.887 -4 40.4816
      vertex 224.74 -4 40.8082
    endloop
  endfacet
  facet normal 0 -1 0
    outer loop
      vertex 171 -4 37.66
      vertex 106 -4 43.66
      vertex 106 -4 37.66
    endloop
  endfacet
  facet normal 0 -1 0
    outer loop
      vertex 222.887 -4 40.4816
      vertex 171 -4 37.66
      vertex 221.678 -4 39.0406
    endloop
  endfacet
  facet normal 0 -1 0
    outer loop
      vertex 171 -4 37.66
      vertex 221.678 -4 37.1594
      vertex 221.678 -4 39.0406
    endloop
  endfacet
  facet normal 0 -1 0
    outer loop
      vertex 221.678 -4 23.1656
      vertex 221.678 -4 37.1594
      vertex 171 -4 37.66
    endloop
  endfacet
  facet normal 0 -1 0
    outer loop
      vertex 221.678 -4 37.1594
      vertex 221.678 -4 23.1656
      vertex 222.887 -4 35.7184
    endloop
  endfacet
  facet normal -0 -1 0
    outer loop
      vertex 222.887 -4 24.6066
      vertex 222.887 -4 35.7184
      vertex 221.678 -4 23.1656
    endloop
  endfacet
  facet normal 0 -1 -0
    outer loop
      vertex 224.74 -4 35.3918
      vertex 222.887 -4 24.6066
      vertex 224.74 -4 24.9332
    endloop
  endfacet
  facet normal 0 -1 0
    outer loop
      vertex 222.887 -4 35.7184
      vertex 222.887 -4 24.6066
      vertex 224.74 -4 35.3918
    endloop
  endfacet
  facet normal 0 -1 0
    outer loop
      vertex 171 -4 37.66
      vertex 221.678 -4 21.2844
      vertex 221.678 -4 23.1656
    endloop
  endfacet
  facet normal 0 -1 0
    outer loop
      vertex 171 -4 6
      vertex 221.678 -4 21.2844
      vertex 171 -4 37.66
    endloop
  endfacet
  facet normal 0 -1 0
    outer loop
      vertex 222.887 -4 19.8434
      vertex 224.74 -4 9.05822
      vertex 224.74 -4 19.5168
    endloop
  endfacet
  facet normal -0 -1 0
    outer loop
      vertex 221.678 -4 7.29056
      vertex 221.678 -4 21.2844
      vertex 171 -4 6
    endloop
  endfacet
  facet normal 0 -1 0
    outer loop
      vertex 222.887 -4 19.8434
      vertex 222.887 -4 8.73157
      vertex 224.74 -4 9.05822
    endloop
  endfacet
  facet normal 0 -1 -0
    outer loop
      vertex 222.887 -4 19.8434
      vertex 221.678 -4 7.29056
      vertex 222.887 -4 8.73157
    endloop
  endfacet
  facet normal 0 -1 0
    outer loop
      vertex 221.678 -4 21.2844
      vertex 221.678 -4 7.29056
      vertex 222.887 -4 19.8434
    endloop
  endfacet
  facet normal 0 -1 -0
    outer loop
      vertex 221.678 -4 7.29056
      vertex 171 -4 6
      vertex 221.678 -4 5.40944
    endloop
  endfacet
  facet normal 0 -1 0
    outer loop
      vertex 226.369 -4 39.8677
      vertex 233 -4 43.66
      vertex 224.74 -4 40.8082
    endloop
  endfacet
  facet normal 0 -1 0
    outer loop
      vertex 227.012 -4 38.1
      vertex 233 -4 43.66
      vertex 226.369 -4 39.8677
    endloop
  endfacet
  facet normal 0 -1 0
    outer loop
      vertex 226.369 -4 36.3323
      vertex 233 -4 43.66
      vertex 227.012 -4 38.1
    endloop
  endfacet
  facet normal 0 -1 0
    outer loop
      vertex 224.74 -4 24.9332
      vertex 226.369 -4 36.3323
      vertex 224.74 -4 35.3918
    endloop
  endfacet
  facet normal 0 -1 0
    outer loop
      vertex 226.369 -4 23.9927
      vertex 226.369 -4 36.3323
      vertex 224.74 -4 24.9332
    endloop
  endfacet
  facet normal 0 -1 0
    outer loop
      vertex 226.369 -4 36.3323
      vertex 226.369 -4 23.9927
      vertex 233 -4 43.66
    endloop
  endfacet
  facet normal 0 -1 0
    outer loop
      vertex 227.012 -4 22.225
      vertex 233 -4 43.66
      vertex 226.369 -4 23.9927
    endloop
  endfacet
  facet normal 0 -1 0
    outer loop
      vertex 224.74 -4 9.05822
      vertex 226.369 -4 20.4573
      vertex 224.74 -4 19.5168
    endloop
  endfacet
  facet normal 0 -1 0
    outer loop
      vertex 226.369 -4 8.11767
      vertex 226.369 -4 20.4573
      vertex 224.74 -4 9.05822
    endloop
  endfacet
  facet normal 0 -1 0
    outer loop
      vertex 233 -4 0
      vertex 226.369 -4 20.4573
      vertex 226.369 -4 8.11767
    endloop
  endfacet
  facet normal 0 -1 0
    outer loop
      vertex 226.369 -4 20.4573
      vertex 233 -4 0
      vertex 227.012 -4 22.225
    endloop
  endfacet
  facet normal 0 -1 0
    outer loop
      vertex 233 -4 0
      vertex 226.369 -4 8.11767
      vertex 227.012 -4 6.35
    endloop
  endfacet
  facet normal 0 -1 0
    outer loop
      vertex 227.012 -4 22.225
      vertex 233 -4 0
      vertex 233 -4 43.66
    endloop
  endfacet
  facet normal 0 -1 0
    outer loop
      vertex 226.369 -4 4.58233
      vertex 233 -4 0
      vertex 227.012 -4 6.35
    endloop
  endfacet
  facet normal 0 -1 0
    outer loop
      vertex 224.74 -4 3.64178
      vertex 233 -4 0
      vertex 226.369 -4 4.58233
    endloop
  endfacet
  facet normal 0 -1 0
    outer loop
      vertex 222.887 -4 3.96843
      vertex 233 -4 0
      vertex 224.74 -4 3.64178
    endloop
  endfacet
  facet normal 1 0 0
    outer loop
      vertex 114 0.123663 27.3625
      vertex 114 0.809999 17.0944
      vertex 114 0.809999 26.5656
    endloop
  endfacet
  facet normal 1 0 0
    outer loop
      vertex 114 0.123663 27.3625
      vertex 114 0.123663 16.2975
      vertex 114 0.809999 17.0944
    endloop
  endfacet
  facet normal 1 0 0
    outer loop
      vertex 114 0.06409 27.5436
      vertex 114 0.123663 16.2975
      vertex 114 0.123663 27.3625
    endloop
  endfacet
  facet normal 1 0 0
    outer loop
      vertex 114 0.06409 27.5436
      vertex 114 0.06409 16.1164
      vertex 114 0.123663 16.2975
    endloop
  endfacet
  facet normal 1 0 0
    outer loop
      vertex 114 0.00999928 27.708
      vertex 114 0.06409 16.1164
      vertex 114 0.06409 27.5436
    endloop
  endfacet
  facet normal 1 0 0
    outer loop
      vertex 114 0.06409 16.1164
      vertex 114 0.00999928 27.708
      vertex 114 0.00999928 15.952
    endloop
  endfacet
  facet normal 1 -0 0
    outer loop
      vertex 114 0.809999 17.0944
      vertex 114 6 0
      vertex 114 6 43.66
    endloop
  endfacet
  facet normal 1 0 0
    outer loop
      vertex 114 0.809999 26.5656
      vertex 114 6 43.66
      vertex 114 0.809999 31.0656
    endloop
  endfacet
  facet normal 1 -0 0
    outer loop
      vertex 114 0.00999928 43.66
      vertex 114 0.809999 31.0656
      vertex 114 6 43.66
    endloop
  endfacet
  facet normal 1 0 0
    outer loop
      vertex 114 0.809999 31.0656
      vertex 114 0.00999928 43.66
      vertex 114 0.123663 30.2687
    endloop
  endfacet
  facet normal 1 0 0
    outer loop
      vertex 114 0.00999928 43.66
      vertex 114 0.06409 30.0876
      vertex 114 0.123663 30.2687
    endloop
  endfacet
  facet normal 1 0 0
    outer loop
      vertex 114 0.06409 30.0876
      vertex 114 0.00999928 43.66
      vertex 114 0.00999928 29.9232
    endloop
  endfacet
  facet normal 1 0 0
    outer loop
      vertex 114 6 0
      vertex 114 2.99 6
      vertex 114 2.99 0
    endloop
  endfacet
  facet normal 1 0 0
    outer loop
      vertex 114 0.809999 17.0944
      vertex 114 6 43.66
      vertex 114 0.809999 26.5656
    endloop
  endfacet
  facet normal 1 0 0
    outer loop
      vertex 114 6 0
      vertex 114 0.809999 17.0944
      vertex 114 2.99 6
    endloop
  endfacet
  facet normal 1 -0 0
    outer loop
      vertex 114 0.809999 12.5944
      vertex 114 2.99 6
      vertex 114 0.809999 17.0944
    endloop
  endfacet
  facet normal 1 0 0
    outer loop
      vertex 114 0.00999928 6
      vertex 114 0.809999 12.5944
      vertex 114 0.123663 13.3913
    endloop
  endfacet
  facet normal 1 0 0
    outer loop
      vertex 114 0.809999 12.5944
      vertex 114 0.00999928 6
      vertex 114 2.99 6
    endloop
  endfacet
  facet normal 1 0 0
    outer loop
      vertex 114 0.06409 13.5724
      vertex 114 0.00999928 6
      vertex 114 0.123663 13.3913
    endloop
  endfacet
  facet normal 1 0 0
    outer loop
      vertex 114 0.00999928 6
      vertex 114 0.06409 13.5724
      vertex 114 0.00999928 13.7368
    endloop
  endfacet
  facet normal 0 1 -0
    outer loop
      vertex 114 6 0
      vertex 106 6 43.66
      vertex 114 6 43.66
    endloop
  endfacet
  facet normal 0 1 0
    outer loop
      vertex 106 6 43.66
      vertex 114 6 0
      vertex 106 6 0
    endloop
  endfacet
  facet normal 0 0 1
    outer loop
      vertex 233 2.99 6
      vertex 226.885 0.00999928 6
      vertex 233 0 6
    endloop
  endfacet
  facet normal 0 0 1
    outer loop
      vertex 233 2.99 6
      vertex 221.678 0.00999928 6
      vertex 226.885 0.00999928 6
    endloop
  endfacet
  facet normal 0 0 1
    outer loop
      vertex 221.678 0.00999928 6
      vertex 118.5 0.00999928 6
      vertex 221.678 0 6
    endloop
  endfacet
  facet normal -0 0 1
    outer loop
      vertex 114 2.99 6
      vertex 221.678 0.00999928 6
      vertex 233 2.99 6
    endloop
  endfacet
  facet normal 0 0 1
    outer loop
      vertex 221.678 0.00999928 6
      vertex 114 2.99 6
      vertex 118.5 0.00999928 6
    endloop
  endfacet
  facet normal 0 0 1
    outer loop
      vertex 118.5 0.00999928 6
      vertex 114 2.99 6
      vertex 114 0.00999928 6
    endloop
  endfacet
  facet normal 0 0 1
    outer loop
      vertex 233 0 6
      vertex 226.885 0.00999928 6
      vertex 226.885 0 6
    endloop
  endfacet
  facet normal 0 0 1
    outer loop
      vertex 221.678 0 6
      vertex 118.5 0.00999928 6
      vertex 118.5 0 6
    endloop
  endfacet
  facet normal 0 1 -0
    outer loop
      vertex 206.15 2.99 3
      vertex 131.925 2.99 4.60215
      vertex 207.075 2.99 4.60215
    endloop
  endfacet
  facet normal 0 1 0
    outer loop
      vertex 206.15 2.99 3
      vertex 132.85 2.99 3
      vertex 131.925 2.99 4.60215
    endloop
  endfacet
  facet normal 0 1 0
    outer loop
      vertex 207.075 2.99 1.39785
      vertex 132.85 2.99 3
      vertex 206.15 2.99 3
    endloop
  endfacet
  facet normal 0 1 0
    outer loop
      vertex 132.85 2.99 3
      vertex 207.075 2.99 1.39785
      vertex 131.925 2.99 1.39785
    endloop
  endfacet
  facet normal 0 1 0
    outer loop
      vertex 207.075 2.99 4.60215
      vertex 233 2.99 6
      vertex 208.925 2.99 4.60215
    endloop
  endfacet
  facet normal 0 1 0
    outer loop
      vertex 233 2.99 6
      vertex 209.85 2.99 3
      vertex 208.925 2.99 4.60215
    endloop
  endfacet
  facet normal 0 1 -0
    outer loop
      vertex 233 2.99 0
      vertex 209.85 2.99 3
      vertex 233 2.99 6
    endloop
  endfacet
  facet normal 0 1 0
    outer loop
      vertex 233 2.99 0
      vertex 207.075 2.99 1.39785
      vertex 208.925 2.99 1.39785
    endloop
  endfacet
  facet normal 0 1 0
    outer loop
      vertex 207.075 2.99 1.39785
      vertex 114 2.99 0
      vertex 131.925 2.99 1.39785
    endloop
  endfacet
  facet normal 0 1 0
    outer loop
      vertex 207.075 2.99 1.39785
      vertex 233 2.99 0
      vertex 114 2.99 0
    endloop
  endfacet
  facet normal 0 1 0
    outer loop
      vertex 209.85 2.99 3
      vertex 233 2.99 0
      vertex 208.925 2.99 1.39785
    endloop
  endfacet
  facet normal 0 1 0
    outer loop
      vertex 233 2.99 6
      vertex 207.075 2.99 4.60215
      vertex 114 2.99 6
    endloop
  endfacet
  facet normal 0 1 -0
    outer loop
      vertex 131.925 2.99 4.60215
      vertex 114 2.99 6
      vertex 207.075 2.99 4.60215
    endloop
  endfacet
  facet normal 0 1 -0
    outer loop
      vertex 130.075 2.99 4.60215
      vertex 114 2.99 6
      vertex 131.925 2.99 4.60215
    endloop
  endfacet
  facet normal 0 1 -0
    outer loop
      vertex 129.15 2.99 3
      vertex 114 2.99 6
      vertex 130.075 2.99 4.60215
    endloop
  endfacet
  facet normal 0 1 0
    outer loop
      vertex 114 2.99 0
      vertex 129.15 2.99 3
      vertex 130.075 2.99 1.39785
    endloop
  endfacet
  facet normal 0 1 0
    outer loop
      vertex 129.15 2.99 3
      vertex 114 2.99 0
      vertex 114 2.99 6
    endloop
  endfacet
  facet normal 0 1 0
    outer loop
      vertex 131.925 2.99 1.39785
      vertex 114 2.99 0
      vertex 130.075 2.99 1.39785
    endloop
  endfacet
  facet normal 0.173605 0 -0.984815
    outer loop
      vertex 222.887 -4 8.73157
      vertex 224.74 0 9.05822
      vertex 224.74 -4 9.05822
    endloop
  endfacet
  facet normal 0.173605 0 -0.984815
    outer loop
      vertex 224.74 0 9.05822
      vertex 222.887 -4 8.73157
      vertex 222.887 0 8.73157
    endloop
  endfacet
  facet normal -0.500019 0 0.866015
    outer loop
      vertex 224.74 0.00999928 3.64178
      vertex 226.369 -4 4.58233
      vertex 226.369 0.00999928 4.58233
    endloop
  endfacet
  facet normal -0.500019 0 0.866015
    outer loop
      vertex 226.369 -4 4.58233
      vertex 224.74 0.00999928 3.64178
      vertex 224.74 -4 3.64178
    endloop
  endfacet
  facet normal -0.93969 0 0.342026
    outer loop
      vertex 226.369 0.00999928 4.58233
      vertex 226.885 0 6
      vertex 226.885 0.00999928 6
    endloop
  endfacet
  facet normal -0.93969 0 0.342026
    outer loop
      vertex 226.369 -4 4.58233
      vertex 226.885 0 6
      vertex 226.369 0.00999928 4.58233
    endloop
  endfacet
  facet normal -0.939757 7.38855e-05 0.341842
    outer loop
      vertex 227.012 -4 6.35
      vertex 226.885 0 6
      vertex 226.369 -4 4.58233
    endloop
  endfacet
  facet normal -0.940028 0 0.341096
    outer loop
      vertex 226.885 0 6
      vertex 227.012 -4 6.35
      vertex 227.012 0 6.35
    endloop
  endfacet
  facet normal 0.173605 0 0.984815
    outer loop
      vertex 222.887 0.00999928 3.96843
      vertex 224.74 -4 3.64178
      vertex 224.74 0.00999928 3.64178
    endloop
  endfacet
  facet normal 0.173605 0 0.984815
    outer loop
      vertex 224.74 -4 3.64178
      vertex 222.887 0.00999928 3.96843
      vertex 222.887 -4 3.96843
    endloop
  endfacet
  facet normal 1 0 0
    outer loop
      vertex 221.678 0 7.29056
      vertex 221.678 -4 7.29056
      vertex 221.678 0 6
    endloop
  endfacet
  facet normal 1 -0 0
    outer loop
      vertex 221.678 0 6
      vertex 221.678 0.00999928 5.40944
      vertex 221.678 0.00999928 6
    endloop
  endfacet
  facet normal 1 0 0
    outer loop
      vertex 221.678 -4 5.40944
      vertex 221.678 0 6
      vertex 221.678 -4 7.29056
    endloop
  endfacet
  facet normal 1 0 0
    outer loop
      vertex 221.678 0 6
      vertex 221.678 -4 5.40944
      vertex 221.678 0.00999928 5.40944
    endloop
  endfacet
  facet normal 0.766084 -0 0.642741
    outer loop
      vertex 221.678 -4 5.40944
      vertex 222.887 0.00999928 3.96843
      vertex 221.678 0.00999928 5.40944
    endloop
  endfacet
  facet normal 0.766084 0 0.642741
    outer loop
      vertex 222.887 0.00999928 3.96843
      vertex 221.678 -4 5.40944
      vertex 222.887 -4 3.96843
    endloop
  endfacet
  facet normal 0 -1 0
    outer loop
      vertex 222.887 0.00999928 3.96843
      vertex 221.678 0.00999928 6
      vertex 221.678 0.00999928 5.40944
    endloop
  endfacet
  facet normal 0 -1 0
    outer loop
      vertex 224.74 0.00999928 3.64178
      vertex 221.678 0.00999928 6
      vertex 222.887 0.00999928 3.96843
    endloop
  endfacet
  facet normal 0 -1 0
    outer loop
      vertex 221.678 0.00999928 6
      vertex 224.74 0.00999928 3.64178
      vertex 226.885 0.00999928 6
    endloop
  endfacet
  facet normal 0 -1 0
    outer loop
      vertex 226.885 0.00999928 6
      vertex 224.74 0.00999928 3.64178
      vertex 226.369 0.00999928 4.58233
    endloop
  endfacet
  facet normal -0.500019 0 -0.866015
    outer loop
      vertex 224.74 -4 9.05822
      vertex 226.369 0 8.11767
      vertex 226.369 -4 8.11767
    endloop
  endfacet
  facet normal -0.500019 0 -0.866015
    outer loop
      vertex 226.369 0 8.11767
      vertex 224.74 -4 9.05822
      vertex 224.74 0 9.05822
    endloop
  endfacet
  facet normal 0.766084 0 -0.642741
    outer loop
      vertex 222.887 -4 8.73157
      vertex 221.678 0 7.29056
      vertex 222.887 0 8.73157
    endloop
  endfacet
  facet normal 0.766084 0 -0.642741
    outer loop
      vertex 221.678 0 7.29056
      vertex 222.887 -4 8.73157
      vertex 221.678 -4 7.29056
    endloop
  endfacet
  facet normal -0.939757 0 -0.341842
    outer loop
      vertex 227.012 -4 6.35
      vertex 226.369 0 8.11767
      vertex 227.012 0 6.35
    endloop
  endfacet
  facet normal -0.939757 -0 -0.341842
    outer loop
      vertex 226.369 0 8.11767
      vertex 227.012 -4 6.35
      vertex 226.369 -4 8.11767
    endloop
  endfacet
  facet normal 0.766082 0 -0.642743
    outer loop
      vertex 222.887 -4 24.6066
      vertex 221.678 0 23.1656
      vertex 222.887 0 24.6066
    endloop
  endfacet
  facet normal 0.766082 0 -0.642743
    outer loop
      vertex 221.678 0 23.1656
      vertex 222.887 -4 24.6066
      vertex 221.678 -4 23.1656
    endloop
  endfacet
  facet normal -0.499999 0 0.866026
    outer loop
      vertex 224.74 0 19.5168
      vertex 226.369 -4 20.4573
      vertex 226.369 0 20.4573
    endloop
  endfacet
  facet normal -0.499999 0 0.866026
    outer loop
      vertex 226.369 -4 20.4573
      vertex 224.74 0 19.5168
      vertex 224.74 -4 19.5168
    endloop
  endfacet
  facet normal -0.939759 0 0.341837
    outer loop
      vertex 226.369 -4 20.4573
      vertex 227.012 0 22.225
      vertex 226.369 0 20.4573
    endloop
  endfacet
  facet normal -0.939759 0 0.341837
    outer loop
      vertex 227.012 0 22.225
      vertex 226.369 -4 20.4573
      vertex 227.012 -4 22.225
    endloop
  endfacet
  facet normal 0.173579 0 0.98482
    outer loop
      vertex 222.887 0 19.8434
      vertex 224.74 -4 19.5168
      vertex 224.74 0 19.5168
    endloop
  endfacet
  facet normal 0.173579 0 0.98482
    outer loop
      vertex 224.74 -4 19.5168
      vertex 222.887 0 19.8434
      vertex 222.887 -4 19.8434
    endloop
  endfacet
  facet normal -0.499999 0 -0.866026
    outer loop
      vertex 224.74 -4 24.9332
      vertex 226.369 0 23.9927
      vertex 226.369 -4 23.9927
    endloop
  endfacet
  facet normal -0.499999 0 -0.866026
    outer loop
      vertex 226.369 0 23.9927
      vertex 224.74 -4 24.9332
      vertex 224.74 0 24.9332
    endloop
  endfacet
  facet normal 0.173579 0 -0.98482
    outer loop
      vertex 222.887 -4 24.6066
      vertex 224.74 0 24.9332
      vertex 224.74 -4 24.9332
    endloop
  endfacet
  facet normal 0.173579 0 -0.98482
    outer loop
      vertex 224.74 0 24.9332
      vertex 222.887 -4 24.6066
      vertex 222.887 0 24.6066
    endloop
  endfacet
  facet normal 1 -0 0
    outer loop
      vertex 221.678 -4 23.1656
      vertex 221.678 0 21.2844
      vertex 221.678 0 23.1656
    endloop
  endfacet
  facet normal 1 0 0
    outer loop
      vertex 221.678 0 21.2844
      vertex 221.678 -4 23.1656
      vertex 221.678 -4 21.2844
    endloop
  endfacet
  facet normal 0.766082 -0 0.642743
    outer loop
      vertex 221.678 -4 21.2844
      vertex 222.887 0 19.8434
      vertex 221.678 0 21.2844
    endloop
  endfacet
  facet normal 0.766082 0 0.642743
    outer loop
      vertex 222.887 0 19.8434
      vertex 221.678 -4 21.2844
      vertex 222.887 -4 19.8434
    endloop
  endfacet
  facet normal -0.939759 0 -0.341837
    outer loop
      vertex 227.012 -4 22.225
      vertex 226.369 0 23.9927
      vertex 227.012 0 22.225
    endloop
  endfacet
  facet normal -0.939759 -0 -0.341837
    outer loop
      vertex 226.369 0 23.9927
      vertex 227.012 -4 22.225
      vertex 226.369 -4 23.9927
    endloop
  endfacet
  facet normal 0.766082 0 -0.642743
    outer loop
      vertex 222.887 -4 40.4816
      vertex 221.678 0 39.0406
      vertex 222.887 0 40.4816
    endloop
  endfacet
  facet normal 0.766082 0 -0.642743
    outer loop
      vertex 221.678 0 39.0406
      vertex 222.887 -4 40.4816
      vertex 221.678 -4 39.0406
    endloop
  endfacet
  facet normal -0.499999 0 0.866026
    outer loop
      vertex 224.74 0 35.3918
      vertex 226.369 -4 36.3323
      vertex 226.369 0 36.3323
    endloop
  endfacet
  facet normal -0.499999 0 0.866026
    outer loop
      vertex 226.369 -4 36.3323
      vertex 224.74 0 35.3918
      vertex 224.74 -4 35.3918
    endloop
  endfacet
  facet normal -0.939759 0 0.341837
    outer loop
      vertex 226.369 -4 36.3323
      vertex 227.012 0 38.1
      vertex 226.369 0 36.3323
    endloop
  endfacet
  facet normal -0.939759 0 0.341837
    outer loop
      vertex 227.012 0 38.1
      vertex 226.369 -4 36.3323
      vertex 227.012 -4 38.1
    endloop
  endfacet
  facet normal 0.173579 0 0.98482
    outer loop
      vertex 222.887 0 35.7184
      vertex 224.74 -4 35.3918
      vertex 224.74 0 35.3918
    endloop
  endfacet
  facet normal 0.173579 0 0.98482
    outer loop
      vertex 224.74 -4 35.3918
      vertex 222.887 0 35.7184
      vertex 222.887 -4 35.7184
    endloop
  endfacet
  facet normal -0.499999 0 -0.866026
    outer loop
      vertex 224.74 -4 40.8082
      vertex 226.369 0 39.8677
      vertex 226.369 -4 39.8677
    endloop
  endfacet
  facet normal -0.499999 0 -0.866026
    outer loop
      vertex 226.369 0 39.8677
      vertex 224.74 -4 40.8082
      vertex 224.74 0 40.8082
    endloop
  endfacet
  facet normal 0.173579 0 -0.98482
    outer loop
      vertex 222.887 -4 40.4816
      vertex 224.74 0 40.8082
      vertex 224.74 -4 40.8082
    endloop
  endfacet
  facet normal 0.173579 0 -0.98482
    outer loop
      vertex 224.74 0 40.8082
      vertex 222.887 -4 40.4816
      vertex 222.887 0 40.4816
    endloop
  endfacet
  facet normal 1 -0 0
    outer loop
      vertex 221.678 -4 39.0406
      vertex 221.678 0 37.1594
      vertex 221.678 0 39.0406
    endloop
  endfacet
  facet normal 1 0 0
    outer loop
      vertex 221.678 0 37.1594
      vertex 221.678 -4 39.0406
      vertex 221.678 -4 37.1594
    endloop
  endfacet
  facet normal 0.766082 -0 0.642743
    outer loop
      vertex 221.678 -4 37.1594
      vertex 222.887 0 35.7184
      vertex 221.678 0 37.1594
    endloop
  endfacet
  facet normal 0.766082 0 0.642743
    outer loop
      vertex 222.887 0 35.7184
      vertex 221.678 -4 37.1594
      vertex 222.887 -4 35.7184
    endloop
  endfacet
  facet normal -0.939759 0 -0.341837
    outer loop
      vertex 227.012 -4 38.1
      vertex 226.369 0 39.8677
      vertex 227.012 0 38.1
    endloop
  endfacet
  facet normal -0.939759 -0 -0.341837
    outer loop
      vertex 226.369 0 39.8677
      vertex 227.012 -4 38.1
      vertex 226.369 -4 39.8677
    endloop
  endfacet
  facet normal 0 -1 0
    outer loop
      vertex 106 0.00999928 43.66
      vertex 111.271 0.00999928 31.06
      vertex 114 0.00999928 43.66
    endloop
  endfacet
  facet normal 0 -1 0
    outer loop
      vertex 106 0.00999928 43.66
      vertex 110.11 0.00999928 30.2168
      vertex 111.271 0.00999928 31.06
    endloop
  endfacet
  facet normal 0 -1 0
    outer loop
      vertex 106 0.00999928 43.66
      vertex 110.091 0.00999928 30.2027
      vertex 110.11 0.00999928 30.2168
    endloop
  endfacet
  facet normal 0 -1 0
    outer loop
      vertex 106 0.00999928 43.66
      vertex 110.083 0.00999928 30.1798
      vertex 110.091 0.00999928 30.2027
    endloop
  endfacet
  facet normal 0 -1 0
    outer loop
      vertex 106 0.00999928 43.66
      vertex 109.64 0.00999928 28.8156
      vertex 110.083 0.00999928 30.1798
    endloop
  endfacet
  facet normal 0 -1 0
    outer loop
      vertex 110.083 0.00999928 16.2086
      vertex 110.083 0.00999928 27.4514
      vertex 109.64 0.00999928 28.8156
    endloop
  endfacet
  facet normal 0 -1 0
    outer loop
      vertex 111.271 0.00999928 26.5712
      vertex 111.271 0.00999928 17.0888
      vertex 112.729 0.00999928 26.5712
    endloop
  endfacet
  facet normal 0 -1 0
    outer loop
      vertex 110.11 0.00999928 27.4144
      vertex 111.271 0.00999928 17.0888
      vertex 111.271 0.00999928 26.5712
    endloop
  endfacet
  facet normal 0 -1 0
    outer loop
      vertex 110.11 0.00999928 16.2456
      vertex 110.11 0.00999928 27.4144
      vertex 110.091 0.00999928 27.4285
    endloop
  endfacet
  facet normal 0 -1 0
    outer loop
      vertex 110.083 0.00999928 27.4514
      vertex 110.083 0.00999928 16.2086
      vertex 110.091 0.00999928 27.4285
    endloop
  endfacet
  facet normal 0 -1 0
    outer loop
      vertex 109.64 0.00999928 14.8444
      vertex 109.64 0.00999928 28.8156
      vertex 106 0.00999928 43.66
    endloop
  endfacet
  facet normal 0 -1 0
    outer loop
      vertex 110.11 0.00999928 27.4144
      vertex 110.11 0.00999928 16.2456
      vertex 111.271 0.00999928 17.0888
    endloop
  endfacet
  facet normal 0 -1 0
    outer loop
      vertex 110.091 0.00999928 27.4285
      vertex 110.091 0.00999928 16.2315
      vertex 110.11 0.00999928 16.2456
    endloop
  endfacet
  facet normal 0 -1 -0
    outer loop
      vertex 110.091 0.00999928 27.4285
      vertex 110.083 0.00999928 16.2086
      vertex 110.091 0.00999928 16.2315
    endloop
  endfacet
  facet normal 0 -1 0
    outer loop
      vertex 109.64 0.00999928 28.8156
      vertex 109.64 0.00999928 14.8444
      vertex 110.083 0.00999928 16.2086
    endloop
  endfacet
  facet normal 0 -1 0
    outer loop
      vertex 106 0.00999928 0
      vertex 110.083 0.00999928 13.4802
      vertex 109.64 0.00999928 14.8444
    endloop
  endfacet
  facet normal 0 -1 0
    outer loop
      vertex 111.271 0.00999928 12.6
      vertex 114 0.00999928 6
      vertex 112.729 0.00999928 12.6
    endloop
  endfacet
  facet normal 0 -1 0
    outer loop
      vertex 106 0.00999928 0
      vertex 111.271 0.00999928 12.6
      vertex 110.11 0.00999928 13.4432
    endloop
  endfacet
  facet normal 0 -1 0
    outer loop
      vertex 106 0.00999928 0
      vertex 110.11 0.00999928 13.4432
      vertex 110.091 0.00999928 13.4573
    endloop
  endfacet
  facet normal 0 -1 0
    outer loop
      vertex 106 0.00999928 0
      vertex 109.64 0.00999928 14.8444
      vertex 106 0.00999928 43.66
    endloop
  endfacet
  facet normal 0 -1 -0
    outer loop
      vertex 110.083 0.00999928 13.4802
      vertex 106 0.00999928 0
      vertex 110.091 0.00999928 13.4573
    endloop
  endfacet
  facet normal 0 -1 -0
    outer loop
      vertex 111.271 0.00999928 12.6
      vertex 106 0.00999928 0
      vertex 114 0.00999928 6
    endloop
  endfacet
  facet normal 0 -1 0
    outer loop
      vertex 118.5 0.00999928 0
      vertex 114 0.00999928 6
      vertex 106 0.00999928 0
    endloop
  endfacet
  facet normal 0 -1 0
    outer loop
      vertex 114 0.00999928 6
      vertex 118.5 0.00999928 0
      vertex 118.5 0.00999928 6
    endloop
  endfacet
  facet normal 0 -1 0
    outer loop
      vertex 112.729 0.00999928 31.06
      vertex 114 0.00999928 43.66
      vertex 111.271 0.00999928 31.06
    endloop
  endfacet
  facet normal 0 -1 0
    outer loop
      vertex 113.89 0.00999928 30.2168
      vertex 114 0.00999928 43.66
      vertex 112.729 0.00999928 31.06
    endloop
  endfacet
  facet normal 0 -1 0
    outer loop
      vertex 113.909 0.00999928 30.2027
      vertex 114 0.00999928 43.66
      vertex 113.89 0.00999928 30.2168
    endloop
  endfacet
  facet normal 0 -1 0
    outer loop
      vertex 113.917 0.00999928 30.1798
      vertex 114 0.00999928 43.66
      vertex 113.909 0.00999928 30.2027
    endloop
  endfacet
  facet normal 0 -1 -0
    outer loop
      vertex 114 0.00999928 43.66
      vertex 113.917 0.00999928 30.1798
      vertex 114 0.00999928 29.9232
    endloop
  endfacet
  facet normal 0 1 0
    outer loop
      vertex 113.909 0.00999928 27.4285
      vertex 114 0.00999928 27.708
      vertex 113.917 0.00999928 27.4514
    endloop
  endfacet
  facet normal 0 -1 0
    outer loop
      vertex 112.729 0.00999928 17.0888
      vertex 112.729 0.00999928 26.5712
      vertex 111.271 0.00999928 17.0888
    endloop
  endfacet
  facet normal 0 -1 0
    outer loop
      vertex 112.729 0.00999928 26.5712
      vertex 112.729 0.00999928 17.0888
      vertex 113.89 0.00999928 27.4144
    endloop
  endfacet
  facet normal 0 -1 0
    outer loop
      vertex 113.89 0.00999928 16.2456
      vertex 113.89 0.00999928 27.4144
      vertex 112.729 0.00999928 17.0888
    endloop
  endfacet
  facet normal 0 -1 0
    outer loop
      vertex 113.89 0.00999928 27.4144
      vertex 113.89 0.00999928 16.2456
      vertex 113.909 0.00999928 27.4285
    endloop
  endfacet
  facet normal 0 -1 0
    outer loop
      vertex 113.909 0.00999928 16.2315
      vertex 113.909 0.00999928 27.4285
      vertex 113.89 0.00999928 16.2456
    endloop
  endfacet
  facet normal 0 -1 0
    outer loop
      vertex 113.909 0.00999928 27.4285
      vertex 113.909 0.00999928 16.2315
      vertex 114 0.00999928 27.708
    endloop
  endfacet
  facet normal 0 -1 0
    outer loop
      vertex 113.917 0.00999928 16.2086
      vertex 114 0.00999928 27.708
      vertex 113.909 0.00999928 16.2315
    endloop
  endfacet
  facet normal 0 -1 -0
    outer loop
      vertex 114 0.00999928 27.708
      vertex 113.917 0.00999928 16.2086
      vertex 114 0.00999928 15.952
    endloop
  endfacet
  facet normal 0 -1 0
    outer loop
      vertex 114 0.00999928 6
      vertex 113.917 0.00999928 13.4802
      vertex 113.909 0.00999928 13.4573
    endloop
  endfacet
  facet normal 0 -1 0
    outer loop
      vertex 113.917 0.00999928 13.4802
      vertex 114 0.00999928 6
      vertex 114 0.00999928 13.7368
    endloop
  endfacet
  facet normal 0 -1 0
    outer loop
      vertex 113.89 0.00999928 13.4432
      vertex 114 0.00999928 6
      vertex 113.909 0.00999928 13.4573
    endloop
  endfacet
  facet normal 0 -1 0
    outer loop
      vertex 114 0.00999928 6
      vertex 113.89 0.00999928 13.4432
      vertex 112.729 0.00999928 12.6
    endloop
  endfacet
  facet normal 0 -1 0
    outer loop
      vertex 162.708 0.00999928 29.3549
      vertex 163 0.00999928 29.66
      vertex 162.512 0.00999928 29.66
    endloop
  endfacet
  facet normal 0 -1 -0
    outer loop
      vertex 163 0.00999928 29.66
      vertex 162.708 0.00999928 29.3549
      vertex 163 0.00999928 29.2215
    endloop
  endfacet
  facet normal 0 -1 0
    outer loop
      vertex 163 0.00999928 14
      vertex 162.708 0.00999928 14.6451
      vertex 162.293 0.00999928 14
    endloop
  endfacet
  facet normal 0 -1 0
    outer loop
      vertex 162.708 0.00999928 14.6451
      vertex 163 0.00999928 14
      vertex 163 0.00999928 14.7785
    endloop
  endfacet
  facet normal -0.694859 0.683121 0.22476
    outer loop
      vertex 114 0.00999928 13.7368
      vertex 114 0.06409 13.5724
      vertex 113.917 0.00999928 13.4802
    endloop
  endfacet
  facet normal 0.428343 0.6846 -0.589784
    outer loop
      vertex 111.027 0.809999 17.8402
      vertex 111.271 0.00999928 17.0888
      vertex 110.11 0.00999928 16.2456
    endloop
  endfacet
  facet normal 0.693274 0.684608 -0.225129
    outer loop
      vertex 110.083 0.00999928 16.2086
      vertex 109.64 0.00999928 14.8444
      vertex 108.85 0.809999 14.8444
    endloop
  endfacet
  facet normal -0.694859 0.683121 -0.22476
    outer loop
      vertex 114 0.06409 16.1164
      vertex 114 0.00999928 15.952
      vertex 113.917 0.00999928 16.2086
    endloop
  endfacet
  facet normal 0.693459 0.684307 0.225473
    outer loop
      vertex 110.083 0.00999928 13.4802
      vertex 109.452 0.809999 12.9929
      vertex 108.85 0.809999 14.8444
    endloop
  endfacet
  facet normal 0.685973 0.687033 0.239641
    outer loop
      vertex 109.452 0.809999 12.9929
      vertex 110.083 0.00999928 13.4802
      vertex 110.091 0.00999928 13.4573
    endloop
  endfacet
  facet normal -0.433479 0.686221 0.58412
    outer loop
      vertex 114 0.123663 13.3913
      vertex 113.89 0.00999928 13.4432
      vertex 113.909 0.00999928 13.4573
    endloop
  endfacet
  facet normal -0.429093 0.684413 0.589456
    outer loop
      vertex 114 0.809999 12.5944
      vertex 113.89 0.00999928 13.4432
      vertex 114 0.123663 13.3913
    endloop
  endfacet
  facet normal -0.42829 0.684641 0.589775
    outer loop
      vertex 113.89 0.00999928 13.4432
      vertex 114 0.809999 12.5944
      vertex 112.973 0.809999 11.8486
    endloop
  endfacet
  facet normal -0.69484 0.683152 -0.224724
    outer loop
      vertex 113.917 0.00999928 16.2086
      vertex 114 0.123663 16.2975
      vertex 114 0.06409 16.1164
    endloop
  endfacet
  facet normal -0.685354 0.687724 -0.239425
    outer loop
      vertex 114 0.123663 16.2975
      vertex 113.917 0.00999928 16.2086
      vertex 113.909 0.00999928 16.2315
    endloop
  endfacet
  facet normal 0.693274 0.684608 0.225129
    outer loop
      vertex 109.64 0.00999928 14.8444
      vertex 110.083 0.00999928 13.4802
      vertex 108.85 0.809999 14.8444
    endloop
  endfacet
  facet normal 0.685973 0.687033 -0.239641
    outer loop
      vertex 110.083 0.00999928 16.2086
      vertex 109.452 0.809999 16.6959
      vertex 110.091 0.00999928 16.2315
    endloop
  endfacet
  facet normal 0.693459 0.684307 -0.225473
    outer loop
      vertex 109.452 0.809999 16.6959
      vertex 110.083 0.00999928 16.2086
      vertex 108.85 0.809999 14.8444
    endloop
  endfacet
  facet normal -0.685354 0.687724 0.239425
    outer loop
      vertex 113.917 0.00999928 13.4802
      vertex 114 0.123663 13.3913
      vertex 113.909 0.00999928 13.4573
    endloop
  endfacet
  facet normal -0.69484 0.683152 0.224724
    outer loop
      vertex 114 0.123663 13.3913
      vertex 113.917 0.00999928 13.4802
      vertex 114 0.06409 13.5724
    endloop
  endfacet
  facet normal 0 -1 0
    outer loop
      vertex 111.027 0.809999 17.8402
      vertex 114 0.809999 17.0944
      vertex 112.973 0.809999 17.8402
    endloop
  endfacet
  facet normal 0 -1 0
    outer loop
      vertex 109.452 0.809999 16.6959
      vertex 114 0.809999 17.0944
      vertex 111.027 0.809999 17.8402
    endloop
  endfacet
  facet normal 0 -1 0
    outer loop
      vertex 108.85 0.809999 14.8444
      vertex 114 0.809999 17.0944
      vertex 109.452 0.809999 16.6959
    endloop
  endfacet
  facet normal 0 -1 0
    outer loop
      vertex 114 0.809999 12.5944
      vertex 108.85 0.809999 14.8444
      vertex 109.452 0.809999 12.9929
    endloop
  endfacet
  facet normal 0 -1 0
    outer loop
      vertex 108.85 0.809999 14.8444
      vertex 114 0.809999 12.5944
      vertex 114 0.809999 17.0944
    endloop
  endfacet
  facet normal 0 -1 0
    outer loop
      vertex 111.027 0.809999 11.8486
      vertex 114 0.809999 12.5944
      vertex 109.452 0.809999 12.9929
    endloop
  endfacet
  facet normal 0 -1 0
    outer loop
      vertex 114 0.809999 12.5944
      vertex 111.027 0.809999 11.8486
      vertex 112.973 0.809999 11.8486
    endloop
  endfacet
  facet normal 0.433746 0.685746 0.58448
    outer loop
      vertex 110.11 0.00999928 13.4432
      vertex 109.452 0.809999 12.9929
      vertex 110.091 0.00999928 13.4573
    endloop
  endfacet
  facet normal 0.428526 0.684456 0.589818
    outer loop
      vertex 109.452 0.809999 12.9929
      vertex 110.11 0.00999928 13.4432
      vertex 111.027 0.809999 11.8486
    endloop
  endfacet
  facet normal 0.428526 0.684456 -0.589818
    outer loop
      vertex 110.11 0.00999928 16.2456
      vertex 109.452 0.809999 16.6959
      vertex 111.027 0.809999 17.8402
    endloop
  endfacet
  facet normal 0.433746 0.685746 -0.58448
    outer loop
      vertex 109.452 0.809999 16.6959
      vertex 110.11 0.00999928 16.2456
      vertex 110.091 0.00999928 16.2315
    endloop
  endfacet
  facet normal -0.428343 0.6846 -0.589784
    outer loop
      vertex 112.973 0.809999 17.8402
      vertex 113.89 0.00999928 16.2456
      vertex 112.729 0.00999928 17.0888
    endloop
  endfacet
  facet normal 0.428343 0.6846 0.589784
    outer loop
      vertex 111.271 0.00999928 12.6
      vertex 111.027 0.809999 11.8486
      vertex 110.11 0.00999928 13.4432
    endloop
  endfacet
  facet normal -0.429093 0.684413 -0.589456
    outer loop
      vertex 113.89 0.00999928 16.2456
      vertex 114 0.809999 17.0944
      vertex 114 0.123663 16.2975
    endloop
  endfacet
  facet normal -0.42829 0.684641 -0.589775
    outer loop
      vertex 114 0.809999 17.0944
      vertex 113.89 0.00999928 16.2456
      vertex 112.973 0.809999 17.8402
    endloop
  endfacet
  facet normal -0.433479 0.686221 -0.58412
    outer loop
      vertex 113.89 0.00999928 16.2456
      vertex 114 0.123663 16.2975
      vertex 113.909 0.00999928 16.2315
    endloop
  endfacet
  facet normal 0 0.68462 -0.7289
    outer loop
      vertex 111.271 0.00999928 17.0888
      vertex 112.973 0.809999 17.8402
      vertex 112.729 0.00999928 17.0888
    endloop
  endfacet
  facet normal 0 0.68462 -0.7289
    outer loop
      vertex 112.973 0.809999 17.8402
      vertex 111.271 0.00999928 17.0888
      vertex 111.027 0.809999 17.8402
    endloop
  endfacet
  facet normal 0 0.68462 0.7289
    outer loop
      vertex 112.973 0.809999 11.8486
      vertex 111.271 0.00999928 12.6
      vertex 112.729 0.00999928 12.6
    endloop
  endfacet
  facet normal 0 0.68462 0.7289
    outer loop
      vertex 111.271 0.00999928 12.6
      vertex 112.973 0.809999 11.8486
      vertex 111.027 0.809999 11.8486
    endloop
  endfacet
  facet normal -0.428343 0.6846 0.589784
    outer loop
      vertex 113.89 0.00999928 13.4432
      vertex 112.973 0.809999 11.8486
      vertex 112.729 0.00999928 12.6
    endloop
  endfacet
  facet normal -0.694859 0.683121 0.22476
    outer loop
      vertex 114 0.00999928 27.708
      vertex 114 0.06409 27.5436
      vertex 113.917 0.00999928 27.4514
    endloop
  endfacet
  facet normal 0.428343 0.6846 -0.589784
    outer loop
      vertex 111.027 0.809999 31.8114
      vertex 111.271 0.00999928 31.06
      vertex 110.11 0.00999928 30.2168
    endloop
  endfacet
  facet normal 0.693274 0.684608 -0.225129
    outer loop
      vertex 110.083 0.00999928 30.1798
      vertex 109.64 0.00999928 28.8156
      vertex 108.85 0.809999 28.8156
    endloop
  endfacet
  facet normal -0.694859 0.683121 -0.22476
    outer loop
      vertex 114 0.06409 30.0876
      vertex 114 0.00999928 29.9232
      vertex 113.917 0.00999928 30.1798
    endloop
  endfacet
  facet normal 0.693459 0.684307 0.225473
    outer loop
      vertex 110.083 0.00999928 27.4514
      vertex 109.452 0.809999 26.9641
      vertex 108.85 0.809999 28.8156
    endloop
  endfacet
  facet normal 0.685973 0.687033 0.239641
    outer loop
      vertex 109.452 0.809999 26.9641
      vertex 110.083 0.00999928 27.4514
      vertex 110.091 0.00999928 27.4285
    endloop
  endfacet
  facet normal -0.433479 0.686221 0.58412
    outer loop
      vertex 114 0.123663 27.3625
      vertex 113.89 0.00999928 27.4144
      vertex 113.909 0.00999928 27.4285
    endloop
  endfacet
  facet normal -0.429093 0.684413 0.589456
    outer loop
      vertex 114 0.809999 26.5656
      vertex 113.89 0.00999928 27.4144
      vertex 114 0.123663 27.3625
    endloop
  endfacet
  facet normal -0.42829 0.684641 0.589775
    outer loop
      vertex 113.89 0.00999928 27.4144
      vertex 114 0.809999 26.5656
      vertex 112.973 0.809999 25.8198
    endloop
  endfacet
  facet normal -0.69484 0.683152 -0.224724
    outer loop
      vertex 113.917 0.00999928 30.1798
      vertex 114 0.123663 30.2687
      vertex 114 0.06409 30.0876
    endloop
  endfacet
  facet normal -0.685354 0.687724 -0.239425
    outer loop
      vertex 114 0.123663 30.2687
      vertex 113.917 0.00999928 30.1798
      vertex 113.909 0.00999928 30.2027
    endloop
  endfacet
  facet normal 0.693274 0.684608 0.225129
    outer loop
      vertex 109.64 0.00999928 28.8156
      vertex 110.083 0.00999928 27.4514
      vertex 108.85 0.809999 28.8156
    endloop
  endfacet
  facet normal 0.685973 0.687033 -0.239641
    outer loop
      vertex 110.083 0.00999928 30.1798
      vertex 109.452 0.809999 30.6671
      vertex 110.091 0.00999928 30.2027
    endloop
  endfacet
  facet normal 0.693459 0.684307 -0.225473
    outer loop
      vertex 109.452 0.809999 30.6671
      vertex 110.083 0.00999928 30.1798
      vertex 108.85 0.809999 28.8156
    endloop
  endfacet
  facet normal -0.685354 0.687724 0.239425
    outer loop
      vertex 113.917 0.00999928 27.4514
      vertex 114 0.123663 27.3625
      vertex 113.909 0.00999928 27.4285
    endloop
  endfacet
  facet normal -0.69484 0.683152 0.224724
    outer loop
      vertex 114 0.123663 27.3625
      vertex 113.917 0.00999928 27.4514
      vertex 114 0.06409 27.5436
    endloop
  endfacet
  facet normal 0 -1 0
    outer loop
      vertex 111.027 0.809999 31.8114
      vertex 114 0.809999 31.0656
      vertex 112.973 0.809999 31.8114
    endloop
  endfacet
  facet normal 0 -1 0
    outer loop
      vertex 109.452 0.809999 30.6671
      vertex 114 0.809999 31.0656
      vertex 111.027 0.809999 31.8114
    endloop
  endfacet
  facet normal 0 -1 0
    outer loop
      vertex 108.85 0.809999 28.8156
      vertex 114 0.809999 31.0656
      vertex 109.452 0.809999 30.6671
    endloop
  endfacet
  facet normal 0 -1 0
    outer loop
      vertex 114 0.809999 26.5656
      vertex 108.85 0.809999 28.8156
      vertex 109.452 0.809999 26.9641
    endloop
  endfacet
  facet normal 0 -1 0
    outer loop
      vertex 108.85 0.809999 28.8156
      vertex 114 0.809999 26.5656
      vertex 114 0.809999 31.0656
    endloop
  endfacet
  facet normal 0 -1 0
    outer loop
      vertex 111.027 0.809999 25.8198
      vertex 114 0.809999 26.5656
      vertex 109.452 0.809999 26.9641
    endloop
  endfacet
  facet normal 0 -1 0
    outer loop
      vertex 114 0.809999 26.5656
      vertex 111.027 0.809999 25.8198
      vertex 112.973 0.809999 25.8198
    endloop
  endfacet
  facet normal 0.433746 0.685746 0.58448
    outer loop
      vertex 110.11 0.00999928 27.4144
      vertex 109.452 0.809999 26.9641
      vertex 110.091 0.00999928 27.4285
    endloop
  endfacet
  facet normal 0.428526 0.684456 0.589818
    outer loop
      vertex 109.452 0.809999 26.9641
      vertex 110.11 0.00999928 27.4144
      vertex 111.027 0.809999 25.8198
    endloop
  endfacet
  facet normal 0.428526 0.684456 -0.589818
    outer loop
      vertex 110.11 0.00999928 30.2168
      vertex 109.452 0.809999 30.6671
      vertex 111.027 0.809999 31.8114
    endloop
  endfacet
  facet normal 0.433746 0.685746 -0.58448
    outer loop
      vertex 109.452 0.809999 30.6671
      vertex 110.11 0.00999928 30.2168
      vertex 110.091 0.00999928 30.2027
    endloop
  endfacet
  facet normal -0.428343 0.6846 -0.589784
    outer loop
      vertex 112.973 0.809999 31.8114
      vertex 113.89 0.00999928 30.2168
      vertex 112.729 0.00999928 31.06
    endloop
  endfacet
  facet normal 0.428343 0.6846 0.589784
    outer loop
      vertex 111.271 0.00999928 26.5712
      vertex 111.027 0.809999 25.8198
      vertex 110.11 0.00999928 27.4144
    endloop
  endfacet
  facet normal -0.429093 0.684413 -0.589456
    outer loop
      vertex 113.89 0.00999928 30.2168
      vertex 114 0.809999 31.0656
      vertex 114 0.123663 30.2687
    endloop
  endfacet
  facet normal -0.42829 0.684641 -0.589775
    outer loop
      vertex 114 0.809999 31.0656
      vertex 113.89 0.00999928 30.2168
      vertex 112.973 0.809999 31.8114
    endloop
  endfacet
  facet normal -0.433479 0.686221 -0.58412
    outer loop
      vertex 113.89 0.00999928 30.2168
      vertex 114 0.123663 30.2687
      vertex 113.909 0.00999928 30.2027
    endloop
  endfacet
  facet normal 0 0.68462 -0.7289
    outer loop
      vertex 111.271 0.00999928 31.06
      vertex 112.973 0.809999 31.8114
      vertex 112.729 0.00999928 31.06
    endloop
  endfacet
  facet normal 0 0.68462 -0.7289
    outer loop
      vertex 112.973 0.809999 31.8114
      vertex 111.271 0.00999928 31.06
      vertex 111.027 0.809999 31.8114
    endloop
  endfacet
  facet normal 0 0.68462 0.7289
    outer loop
      vertex 112.973 0.809999 25.8198
      vertex 111.271 0.00999928 26.5712
      vertex 112.729 0.00999928 26.5712
    endloop
  endfacet
  facet normal 0 0.68462 0.7289
    outer loop
      vertex 111.271 0.00999928 26.5712
      vertex 112.973 0.809999 25.8198
      vertex 111.027 0.809999 25.8198
    endloop
  endfacet
  facet normal -0.428343 0.6846 0.589784
    outer loop
      vertex 113.89 0.00999928 27.4144
      vertex 112.973 0.809999 25.8198
      vertex 112.729 0.00999928 26.5712
    endloop
  endfacet
  facet normal 0 0 -1
    outer loop
      vertex 130.075 -0.00999928 4.60215
      vertex 131.925 2.99 4.60215
      vertex 131.925 -0.00999928 4.60215
    endloop
  endfacet
  facet normal -0 0 -1
    outer loop
      vertex 131.925 2.99 4.60215
      vertex 130.075 -0.00999928 4.60215
      vertex 130.075 2.99 4.60215
    endloop
  endfacet
  facet normal -0.866026 0 -0.499999
    outer loop
      vertex 132.85 -0.00999928 3
      vertex 131.925 2.99 4.60215
      vertex 132.85 2.99 3
    endloop
  endfacet
  facet normal -0.866026 -0 -0.499999
    outer loop
      vertex 131.925 2.99 4.60215
      vertex 132.85 -0.00999928 3
      vertex 131.925 -0.00999928 4.60215
    endloop
  endfacet
  facet normal -0 0 1
    outer loop
      vertex 130.075 2.99 1.39785
      vertex 131.925 -0.00999928 1.39785
      vertex 131.925 2.99 1.39785
    endloop
  endfacet
  facet normal 0 0 1
    outer loop
      vertex 131.925 -0.00999928 1.39785
      vertex 130.075 2.99 1.39785
      vertex 130.075 -0.00999928 1.39785
    endloop
  endfacet
  facet normal -0.866026 0 0.499999
    outer loop
      vertex 131.925 -0.00999928 1.39785
      vertex 132.85 2.99 3
      vertex 131.925 2.99 1.39785
    endloop
  endfacet
  facet normal -0.866026 0 0.499999
    outer loop
      vertex 132.85 2.99 3
      vertex 131.925 -0.00999928 1.39785
      vertex 132.85 -0.00999928 3
    endloop
  endfacet
  facet normal 0.866026 -0 0.499999
    outer loop
      vertex 129.15 -0.00999928 3
      vertex 130.075 2.99 1.39785
      vertex 129.15 2.99 3
    endloop
  endfacet
  facet normal 0.866026 0 0.499999
    outer loop
      vertex 130.075 2.99 1.39785
      vertex 129.15 -0.00999928 3
      vertex 130.075 -0.00999928 1.39785
    endloop
  endfacet
  facet normal 0.866026 0 -0.499999
    outer loop
      vertex 130.075 -0.00999928 4.60215
      vertex 129.15 2.99 3
      vertex 130.075 2.99 4.60215
    endloop
  endfacet
  facet normal 0.866026 0 -0.499999
    outer loop
      vertex 129.15 2.99 3
      vertex 130.075 -0.00999928 4.60215
      vertex 129.15 -0.00999928 3
    endloop
  endfacet
  facet normal 0 1 0
    outer loop
      vertex 132.85 -0.00999928 3
      vertex 130.075 -0.00999928 4.60215
      vertex 131.925 -0.00999928 4.60215
    endloop
  endfacet
  facet normal 0 1 0
    outer loop
      vertex 132.85 -0.00999928 3
      vertex 129.15 -0.00999928 3
      vertex 130.075 -0.00999928 4.60215
    endloop
  endfacet
  facet normal 0 1 -0
    outer loop
      vertex 131.925 -0.00999928 1.39785
      vertex 129.15 -0.00999928 3
      vertex 132.85 -0.00999928 3
    endloop
  endfacet
  facet normal 0 1 0
    outer loop
      vertex 129.15 -0.00999928 3
      vertex 131.925 -0.00999928 1.39785
      vertex 130.075 -0.00999928 1.39785
    endloop
  endfacet
  facet normal 0 0 -1
    outer loop
      vertex 207.075 -0.00999928 4.60215
      vertex 208.925 2.99 4.60215
      vertex 208.925 -0.00999928 4.60215
    endloop
  endfacet
  facet normal -0 0 -1
    outer loop
      vertex 208.925 2.99 4.60215
      vertex 207.075 -0.00999928 4.60215
      vertex 207.075 2.99 4.60215
    endloop
  endfacet
  facet normal -0.866026 0 -0.499999
    outer loop
      vertex 209.85 -0.00999928 3
      vertex 208.925 2.99 4.60215
      vertex 209.85 2.99 3
    endloop
  endfacet
  facet normal -0.866026 -0 -0.499999
    outer loop
      vertex 208.925 2.99 4.60215
      vertex 209.85 -0.00999928 3
      vertex 208.925 -0.00999928 4.60215
    endloop
  endfacet
  facet normal -0 0 1
    outer loop
      vertex 207.075 2.99 1.39785
      vertex 208.925 -0.00999928 1.39785
      vertex 208.925 2.99 1.39785
    endloop
  endfacet
  facet normal 0 0 1
    outer loop
      vertex 208.925 -0.00999928 1.39785
      vertex 207.075 2.99 1.39785
      vertex 207.075 -0.00999928 1.39785
    endloop
  endfacet
  facet normal -0.866026 0 0.499999
    outer loop
      vertex 208.925 -0.00999928 1.39785
      vertex 209.85 2.99 3
      vertex 208.925 2.99 1.39785
    endloop
  endfacet
  facet normal -0.866026 0 0.499999
    outer loop
      vertex 209.85 2.99 3
      vertex 208.925 -0.00999928 1.39785
      vertex 209.85 -0.00999928 3
    endloop
  endfacet
  facet normal 0.866026 -0 0.499999
    outer loop
      vertex 206.15 -0.00999928 3
      vertex 207.075 2.99 1.39785
      vertex 206.15 2.99 3
    endloop
  endfacet
  facet normal 0.866026 0 0.499999
    outer loop
      vertex 207.075 2.99 1.39785
      vertex 206.15 -0.00999928 3
      vertex 207.075 -0.00999928 1.39785
    endloop
  endfacet
  facet normal 0.866026 0 -0.499999
    outer loop
      vertex 207.075 -0.00999928 4.60215
      vertex 206.15 2.99 3
      vertex 207.075 2.99 4.60215
    endloop
  endfacet
  facet normal 0.866026 0 -0.499999
    outer loop
      vertex 206.15 2.99 3
      vertex 207.075 -0.00999928 4.60215
      vertex 206.15 -0.00999928 3
    endloop
  endfacet
  facet normal 0 1 0
    outer loop
      vertex 209.85 -0.00999928 3
      vertex 207.075 -0.00999928 4.60215
      vertex 208.925 -0.00999928 4.60215
    endloop
  endfacet
  facet normal 0 1 0
    outer loop
      vertex 209.85 -0.00999928 3
      vertex 206.15 -0.00999928 3
      vertex 207.075 -0.00999928 4.60215
    endloop
  endfacet
  facet normal 0 1 -0
    outer loop
      vertex 208.925 -0.00999928 1.39785
      vertex 206.15 -0.00999928 3
      vertex 209.85 -0.00999928 3
    endloop
  endfacet
  facet normal 0 1 0
    outer loop
      vertex 206.15 -0.00999928 3
      vertex 208.925 -0.00999928 1.39785
      vertex 207.075 -0.00999928 1.39785
    endloop
  endfacet
  facet normal -1 0 0
    outer loop
      vertex 118.5 -2.5 37.66
      vertex 118.5 0 29.66
      vertex 118.5 -2.5 29.66
    endloop
  endfacet
  facet normal -1 0 0
    outer loop
      vertex 118.5 0 29.66
      vertex 118.5 -2.5 37.66
      vertex 118.5 0 43.66
    endloop
  endfacet
  facet normal -1 -0 0
    outer loop
      vertex 118.5 0 43.66
      vertex 118.5 -2.5 37.66
      vertex 118.5 -2.5 43.66
    endloop
  endfacet
  facet normal -1 0 0
    outer loop
      vertex 118.5 0.00999928 0
      vertex 118.5 0 6
      vertex 118.5 0.00999928 6
    endloop
  endfacet
  facet normal -1 0 0
    outer loop
      vertex 118.5 -2.5 0
      vertex 118.5 0 6
      vertex 118.5 0.00999928 0
    endloop
  endfacet
  facet normal -1 0 0
    outer loop
      vertex 118.5 -2.5 6
      vertex 118.5 0 6
      vertex 118.5 -2.5 0
    endloop
  endfacet
  facet normal -1 0 0
    outer loop
      vertex 118.5 0 6
      vertex 118.5 -2.5 6
      vertex 118.5 0 14
    endloop
  endfacet
  facet normal -1 -0 0
    outer loop
      vertex 118.5 0 14
      vertex 118.5 -2.5 6
      vertex 118.5 -2.5 14
    endloop
  endfacet
  facet normal 0 1 -0
    outer loop
      vertex 118.5 -2.5 37.66
      vertex 106 -2.5 43.66
      vertex 118.5 -2.5 43.66
    endloop
  endfacet
  facet normal 0 1 0
    outer loop
      vertex 106 -2.5 43.66
      vertex 118.5 -2.5 37.66
      vertex 106 -2.5 37.66
    endloop
  endfacet
  facet normal 0 1 -0
    outer loop
      vertex 118.5 -2.5 0
      vertex 106 -2.5 6
      vertex 118.5 -2.5 6
    endloop
  endfacet
  facet normal 0 1 0
    outer loop
      vertex 106 -2.5 6
      vertex 118.5 -2.5 0
      vertex 106 -2.5 0
    endloop
  endfacet
  facet normal 0 -1 0
    outer loop
      vertex 118.5 -2.5 14
      vertex 118.5 -2.5 6
      vertex 163 -2.5 14
    endloop
  endfacet
  facet normal 0 -1 0
    outer loop
      vertex 163 -2.5 29.66
      vertex 118.5 -2.5 37.66
      vertex 118.5 -2.5 29.66
    endloop
  endfacet
  facet normal 0 -1 0
    outer loop
      vertex 118.5 -2.5 37.66
      vertex 163 -2.5 29.66
      vertex 171 -2.5 37.66
    endloop
  endfacet
  facet normal 0 -1 0
    outer loop
      vertex 163 -2.5 14
      vertex 171 -2.5 37.66
      vertex 163 -2.5 29.66
    endloop
  endfacet
  facet normal 0 -1 0
    outer loop
      vertex 163 -2.5 14
      vertex 171 -2.5 6
      vertex 171 -2.5 37.66
    endloop
  endfacet
  facet normal 0 -1 0
    outer loop
      vertex 171 -2.5 6
      vertex 163 -2.5 14
      vertex 118.5 -2.5 6
    endloop
  endfacet
  facet normal -1 0 0
    outer loop
      vertex 163 0.00999928 14
      vertex 163 0 14.7785
      vertex 163 0.00999928 14.7785
    endloop
  endfacet
  facet normal -1 0 0
    outer loop
      vertex 163 -2.5 29.66
      vertex 163 0 14.7785
      vertex 163 -2.5 14
    endloop
  endfacet
  facet normal -1 0 0
    outer loop
      vertex 163 -2.5 14
      vertex 163 0 14.7785
      vertex 163 0.00999928 14
    endloop
  endfacet
  facet normal -1 0 0
    outer loop
      vertex 163 0 29.2215
      vertex 163 0.00999928 29.66
      vertex 163 0.00999928 29.2215
    endloop
  endfacet
  facet normal -1 0 0
    outer loop
      vertex 163 0 14.7785
      vertex 163 -2.5 29.66
      vertex 163 0 29.2215
    endloop
  endfacet
  facet normal -1 0 0
    outer loop
      vertex 163 0 29.2215
      vertex 163 -2.5 29.66
      vertex 163 0.00999928 29.66
    endloop
  endfacet
  facet normal 0 0 -1
    outer loop
      vertex 163 -2.5 29.66
      vertex 162.512 0 29.66
      vertex 163 0.00999928 29.66
    endloop
  endfacet
  facet normal 0 0 -1
    outer loop
      vertex 118.5 -2.5 29.66
      vertex 162.512 0 29.66
      vertex 163 -2.5 29.66
    endloop
  endfacet
  facet normal -0 0 -1
    outer loop
      vertex 162.512 0 29.66
      vertex 118.5 -2.5 29.66
      vertex 118.5 0 29.66
    endloop
  endfacet
  facet normal -0 0 -1
    outer loop
      vertex 163 0.00999928 29.66
      vertex 162.512 0 29.66
      vertex 162.512 0.00999928 29.66
    endloop
  endfacet
  facet normal 0 0 1
    outer loop
      vertex 162.293 0 14
      vertex 163 0.00999928 14
      vertex 162.293 0.00999928 14
    endloop
  endfacet
  facet normal 0 0 1
    outer loop
      vertex 163 0.00999928 14
      vertex 162.293 0 14
      vertex 163 -2.5 14
    endloop
  endfacet
  facet normal 0 0 1
    outer loop
      vertex 118.5 -2.5 14
      vertex 162.293 0 14
      vertex 118.5 0 14
    endloop
  endfacet
  facet normal 0 0 1
    outer loop
      vertex 162.293 0 14
      vertex 118.5 -2.5 14
      vertex 163 -2.5 14
    endloop
  endfacet
  facet normal -1 0 0
    outer loop
      vertex 171 -4 6
      vertex 171 -2.5 37.66
      vertex 171 -2.5 6
    endloop
  endfacet
  facet normal -1 -0 0
    outer loop
      vertex 171 -2.5 37.66
      vertex 171 -4 6
      vertex 171 -4 37.66
    endloop
  endfacet
  facet normal 0 0 -1
    outer loop
      vertex 171 -4 37.66
      vertex 118.5 -2.5 37.66
      vertex 171 -2.5 37.66
    endloop
  endfacet
  facet normal 0 0 -1
    outer loop
      vertex 106 -4 37.66
      vertex 118.5 -2.5 37.66
      vertex 171 -4 37.66
    endloop
  endfacet
  facet normal -0 0 -1
    outer loop
      vertex 118.5 -2.5 37.66
      vertex 106 -4 37.66
      vertex 106 -2.5 37.66
    endloop
  endfacet
  facet normal -0 0 1
    outer loop
      vertex 118.5 -2.5 6
      vertex 171 -4 6
      vertex 171 -2.5 6
    endloop
  endfacet
  facet normal 0 0 1
    outer loop
      vertex 106 -4 6
      vertex 118.5 -2.5 6
      vertex 106 -2.5 6
    endloop
  endfacet
  facet normal 0 0 1
    outer loop
      vertex 118.5 -2.5 6
      vertex 106 -4 6
      vertex 171 -4 6
    endloop
  endfacet
endsolid OpenSCAD_Model
